<?xml version="1.0" encoding="UTF-8" standalone="no"?>
<!-- Created with Inkscape (http://www.inkscape.org/) -->

<svg
   xmlns:osb="http://www.openswatchbook.org/uri/2009/osb"
   xmlns:dc="http://purl.org/dc/elements/1.1/"
   xmlns:cc="http://creativecommons.org/ns#"
   xmlns:rdf="http://www.w3.org/1999/02/22-rdf-syntax-ns#"
   xmlns:svg="http://www.w3.org/2000/svg"
   xmlns="http://www.w3.org/2000/svg"
   xmlns:xlink="http://www.w3.org/1999/xlink"
   xmlns:sodipodi="http://sodipodi.sourceforge.net/DTD/sodipodi-0.dtd"
   xmlns:inkscape="http://www.inkscape.org/namespaces/inkscape"
   width="22"
   height="22"
   id="svg2"
   version="1.1"
   inkscape:version="0.48.0 r9654"
   sodipodi:docname="zoomundo.svg">
  <defs
     id="defs4">
    <linearGradient
       id="linearGradient3794"
       osb:paint="solid">
      <stop
         style="stop-color:#000000;stop-opacity:0.39215687;"
         offset="0"
         id="stop3796" />
    </linearGradient>
    <marker
       inkscape:stockid="Arrow1Send"
       orient="auto"
       refY="0.0"
       refX="0.0"
       id="Arrow1Send"
       style="overflow:visible;">
      <path
         id="path4938"
         d="M 0.0,0.0 L 5.0,-5.0 L -12.5,0.0 L 5.0,5.0 L 0.0,0.0 z "
         style="fill-rule:evenodd;stroke:#000000;stroke-width:1.0pt;marker-start:none;"
         transform="scale(0.2) rotate(180) translate(6,0)" />
    </marker>
    <marker
       inkscape:stockid="Arrow1Mend"
       orient="auto"
       refY="0.0"
       refX="0.0"
       id="Arrow1Mend"
       style="overflow:visible;">
      <path
         id="path4932"
         d="M 0.0,0.0 L 5.0,-5.0 L -12.5,0.0 L 5.0,5.0 L 0.0,0.0 z "
         style="fill-rule:evenodd;stroke:#000000;stroke-width:1.0pt;marker-start:none;"
         transform="scale(0.4) rotate(180) translate(10,0)" />
    </marker>
    <marker
       inkscape:stockid="Arrow1Lend"
       orient="auto"
       refY="0.0"
       refX="0.0"
       id="Arrow1Lend"
       style="overflow:visible;">
      <path
         id="path4926"
         d="M 0.0,0.0 L 5.0,-5.0 L -12.5,0.0 L 5.0,5.0 L 0.0,0.0 z "
         style="fill-rule:evenodd;stroke:#000000;stroke-width:1.0pt;marker-start:none;"
         transform="scale(0.8) rotate(180) translate(12.5,0)" />
    </marker>
    <marker
       inkscape:stockid="Arrow2Lend"
       orient="auto"
       refY="0.0"
       refX="0.0"
       id="Arrow2Lend"
       style="overflow:visible;">
      <path
         id="path4944"
         style="font-size:12.0;fill-rule:evenodd;stroke-width:0.62500000;stroke-linejoin:round;"
         d="M 8.7185878,4.0337352 L -2.2072895,0.016013256 L 8.7185884,-4.0017078 C 6.9730900,-1.6296469 6.9831476,1.6157441 8.7185878,4.0337352 z "
         transform="scale(1.1) rotate(180) translate(1,0)" />
    </marker>
    <linearGradient
       id="linearGradient4881"
       osb:paint="solid">
      <stop
         style="stop-color:#000000;stop-opacity:1;"
         offset="0"
         id="stop4883" />
    </linearGradient>
    <linearGradient
       id="linearGradient4873">
      <stop
         style="stop-color:#3d3b3d;stop-opacity:0;"
         offset="0"
         id="stop4875" />
      <stop
         id="stop4887"
         offset="1"
         style="stop-color:#503b3a;stop-opacity:0.36000001;" />
    </linearGradient>
    <linearGradient
       inkscape:collect="always"
       xlink:href="#linearGradient3794"
       id="linearGradient3798"
       x1="2.2486636"
       y1="1040.9062"
       x2="12.137575"
       y2="1040.9062"
       gradientUnits="userSpaceOnUse" />
    <linearGradient
       inkscape:collect="always"
       xlink:href="#linearGradient3794"
       id="linearGradient3803"
       gradientUnits="userSpaceOnUse"
       x1="2.2486636"
       y1="1040.9062"
       x2="12.137575"
       y2="1040.9062"
       gradientTransform="translate(-0.18556125,0.03912504)" />
    <linearGradient
       inkscape:collect="always"
       xlink:href="#linearGradient3794"
       id="linearGradient3808"
       gradientUnits="userSpaceOnUse"
       gradientTransform="translate(-0.1821423,-0.05280084)"
       x1="2.2486636"
       y1="1040.9062"
       x2="12.137575"
       y2="1040.9062" />
    <linearGradient
       inkscape:collect="always"
       xlink:href="#linearGradient3794"
       id="linearGradient3810"
       gradientUnits="userSpaceOnUse"
       x1="2.2486636"
       y1="1040.9062"
       x2="12.137575"
       y2="1040.9062"
       gradientTransform="matrix(0.77943315,-0.83965089,0.83965089,0.77943315,-4.3493128,8.8315387)" />
  </defs>
  <sodipodi:namedview
     id="base"
     pagecolor="#ffffff"
     bordercolor="#666666"
     borderopacity="1.0"
     inkscape:pageopacity="0.0"
     inkscape:pageshadow="2"
     inkscape:zoom="11.2"
     inkscape:cx="14.711635"
     inkscape:cy="1.9245671"
     inkscape:document-units="px"
     inkscape:current-layer="g4891"
     showgrid="false"
     inkscape:window-width="1440"
     inkscape:window-height="838"
     inkscape:window-x="-8"
     inkscape:window-y="-8"
     inkscape:window-maximized="1"
     showguides="true"
     inkscape:guide-bbox="true" />
  <metadata
     id="metadata7">
    <rdf:RDF>
      <cc:Work
         rdf:about="">
        <dc:format>image/svg+xml</dc:format>
        <dc:type
           rdf:resource="http://purl.org/dc/dcmitype/StillImage" />
        <dc:title />
      </cc:Work>
    </rdf:RDF>
  </metadata>
  <g
     inkscape:label="Livello 1"
     inkscape:groupmode="layer"
     id="layer1"
     transform="translate(0,-1030.3622)">
    <g
       id="g4891"
       transform="matrix(0.74978945,-0.80771696,0.80771696,0.74978945,-835.04869,266.70673)">
      <g
         id="g6496"
         transform="matrix(1.2455007,0,0,1.2455007,-1.9995697,-255.63295)"
         style="stroke:url(#linearGradient3798);fill:none;fill-opacity:0.39215686999999999">
        <path
           style="fill:none;stroke:url(#linearGradient3810);stroke-width:1.14565681999999990;stroke-linecap:round"
           d="M 7.28125 1.8125 C 5.6920052 1.8716079 4.1362051 2.5235992 2.96875 3.78125 C 0.63383982 6.2965515 0.76594846 10.22759 3.28125 12.5625 C 5.7965515 14.89741 9.7275898 14.765302 12.0625 12.25 C 14.39741 9.7346985 14.265302 5.8036602 11.75 3.46875 C 10.492349 2.3012949 8.8704948 1.7533921 7.28125 1.8125 z M 13.78125 11.34375 L 11.3125 14 L 17.875 20.09375 L 20.34375 17.4375 L 13.78125 11.34375 z "
           transform="matrix(0.49563883,0.53393108,-0.53393108,0.49563883,7.7486021,1029.6009)"
           id="path4099" />
      </g>
      <path
         style="fill:#000000;fill-opacity:1;stroke:#000000;stroke-width:1.07478082px;stroke-linecap:butt;stroke-linejoin:miter;stroke-opacity:1"
         d="m -3.5215492,1043.0085 c 0,0 12.7446936,7.519 16.8874782,3.8924 4.052438,-3.8656 -4.620059,-11.6032 -4.3519336,-12.9674 0.134451,-1.2633 2.5778176,-3.1911 0.7198733,-2.9389 -2.5040766,0.34 -2.783478,0.2592 -5.4157579,0.5661 -0.444353,2.5952 -0.6099742,3.2421 -0.9423595,5.5191 -0.2351745,1.611 2.3489153,-0.6615 3.2463554,-0.8002 1.256592,-0.194 6.9743633,7.0041 4.6251173,9.2899 -3.538974,3.4434 -14.7687732,-2.561 -14.7687732,-2.561 z"
         id="path6490"
         inkscape:connector-curvature="0"
         sodipodi:nodetypes="cccscsssc" />
    </g>
  </g>
</svg>
