999
dxflib 2.2.0.0
  0
SECTION
  2
HEADER
  9
$ACADVER
  1
AC1015
  9
$HANDSEED
  5
FFFF
  9
$OBSCOLOR
 70
257
  9
$DIMLIM
 70
0
  9
$LENSLENGTH
 40
50.0
  9
$LONGITUDE
 40
-122.39400000000001
  9
$DIMLUNIT
 70
2
  9
$DIMTIX
 70
0
  9
$LOFTANG1
 40
1.570796326794897
  9
$LOFTANG2
 40
1.570796326794897
  9
$AUNITS
 70
0
  9
$SHOWHIST
280
1
  9
$QTEXTMODE
 70
0
  9
$USERR1
 40
0.0
  9
$DIMALTU
 70
2
  9
$USERR2
 40
0.0
  9
$UCSORGBOTTOM
 10
0.0
 20
0.0
 30
0.0
  9
$USERR3
 40
0.0
  9
$USERR4
 40
0.0
  9
$USERR5
 40
0.0
  9
$LIMMAX
 10
12.0
 20
9.0
  9
$PELEVATION
 40
0.0
  9
$DIMALTZ
 70
0
  9
$DIMADEC
 70
2
  9
$JOINSTYLE
280
0
  9
$TILEMODE
 70
1
  9
$DIMATFIT
 70
3
  9
$PEXTMIN
 10
100000000000000000000.0
 20
100000000000000000000.0
 30
100000000000000000000.0
  9
$TDUSRTIMER
 40
2455979.6938425931
  9
$DWGCODEPAGE
  3
ANSI_1252
  9
$SORTENTS
280
127
  9
$UCSORTHOVIEW
 70
0
  9
$DIMSOXD
 70
0
  9
$DIMTZIN
 70
0
  9
$SPLINETYPE
 70
6
  9
$DIMLFAC
 40
1.0
  9
$DIMSE1
 70
0
  9
$FILLETRAD
 40
0.0
  9
$DIMSE2
 70
0
  9
$PSTYLEMODE
290
1
  9
$TEXTSTYLE
  7
Standard
  9
$DIMTSZ
 40
0.0
  9
$PUCSXDIR
 10
1.0
 20
0.0
 30
0.0
  9
$DIMTFILL
 70
0
  9
$XCLIPFRAME
280
1
  9
$DIMTXSTY
  7
Standard
  9
$PLIMMAX
 10
209.57479573302621
 20
296.3087023906632
  9
$LOFTNORMALS
280
1
  9
$DIMTFILLCLR
 70
0
  9
$DIMTM
 40
0.0
  9
$UCSORG
 10
0.0
 20
0.0
 30
0.0
  9
$DIMJOGANG
 40
0.7853981633974483
  9
$DIMTP
 40
0.0
  9
$PSLTSCALE
 70
1
  9
$EXTNAMES
290
1
  9
$ANGBASE
 50
0.0
  9
$PUCSYDIR
 10
0.0
 20
1.0
 30
0.0
  9
$LIGHTGLYPHDISPLAY
280
1
  9
$DIMASZ
 40
2.5
  9
$PUCSORTHOVIEW
 70
0
  9
$UNITMODE
 70
0
  9
$INDEXCTL
280
0
  9
$MEASUREMENT
 70
0
  9
$INSBASE
 10
0.0
 20
0.0
 30
0.0
  9
$REALWORLDSCALE
290
1
  9
$EXTMAX
 10
-100000000000000000000.0
 20
-100000000000000000000.0
 30
-100000000000000000000.0
  9
$ELEVATION
 40
0.0
  9
$STEPSPERSEC
 40
2.0
  9
$TDCREATE
 40
0.0
  9
$DIMDEC
 70
4
  9
$LATITUDE
 40
37.795000000000002
  9
$CELTYPE
  6
ByBlock
  9
$MENU
  1
.
  9
$ANGDIR
 70
0
  9
$DIMALTTD
 70
2
  9
$TREEDEPTH
 70
3020
  9
$PROXYGRAPHICS
 70
1
  9
$LTSCALE
 40
1.0
  9
$DIMTMOVE
 70
0
  9
$DIMAZIN
 70
0
  9
$TDUPDATE
 40
2455979.963888878
  9
$DIMTOLJ
 70
1
  9
$DIMCEN
 40
0.09
  9
$DIMTVP
 40
0.0
  9
$TRACEWID
 40
0.05
  9
$CMLSTYLE
  2
Standard
  9
$DISPSILH
 70
0
  9
$DIMSTYLE
  2
Standard
  9
$STEPSIZE
 40
6.0
  9
$SKETCHINC
 40
0.1
  9
$FILLMODE
 70
1
  9
$PLINEGEN
 70
0
  9
$DIMLWD
 70
-2
  9
$THICKNESS
 40
0.0
  9
$PUCSORG
 10
0.0
 20
0.0
 30
0.0
  9
$DIMLWE
 70
-2
  9
$CELTSCALE
 40
1.0
  9
$DIMALTTZ
 70
0
  9
$INSUNITS
 70
0
  9
$UCSORGBACK
 10
0.0
 20
0.0
 30
0.0
  9
$PLINEWID
 40
0.0
  9
$PEXTMAX
 10
-100000000000000000000.0
 20
-100000000000000000000.0
 30
-100000000000000000000.0
  9
$DIMJUST
 70
0
  9
$CSHADOW
280
0
  9
$DIMASSOC
280
1
  9
$DIMTXTDIRECTION
 70
0
  9
$UCSYDIR
 10
0.0
 20
1.0
 30
0.0
  9
$PUCSORGBACK
 10
0.0
 20
0.0
 30
0.0
  9
$GRIDMODE
 70
0
  9
$PUCSORGBOTTOM
 10
0.0
 20
0.0
 30
0.0
  9
$PDSIZE
 40
0.0
  9
$DIMUPT
 70
0
  9
$TILEMODELIGHTSYNCH
280
1
  9
$DIMTAD
 70
0
  9
$SHADOWPLANELOCATION
 40
0.0
  9
$MAXACTVP
 70
64
  9
$UCSXDIR
 10
1.0
 20
0.0
 30
0.0
  9
$DIMSAH
 70
0
  9
$HALOGAP
280
0
  9
$TDUCREATE
 40
0.0
  9
$DIMFRAC
 70
0
  9
$USERI1
 70
0
  9
$USERI2
 70
0
  9
$CELWEIGHT
370
-1
  9
$USERI3
 70
0
  9
$UCSORGRIGHT
 10
0.0
 20
0.0
 30
0.0
  9
$LWDISPLAY
290
0
  9
$SKPOLY
 70
0
  9
$USERI4
 70
0
  9
$USERI5
 70
0
  9
$LOFTPARAM
 70
7
  9
$LIMMIN
 10
0.0
 20
0.0
  9
$ACADMAINTVER
 70
6
  9
$UCSORGTOP
 10
0.0
 20
0.0
 30
0.0
  9
$PSOLHEIGHT
 40
4.0
  9
$MIRRTEXT
 70
1
  9
$TDUUPDATE
 40
2455979.9222222222
  9
$TEXTSIZE
 40
2.5
  9
$DIMGAP
 40
0.625
  9
$LUPREC
 70
4
  9
$INTERFERECOLOR
 62
256
  9
$CECOLOR
 62
256
  9
$TIMEZONE
 70
-8000
  9
$DIMSD1
 70
0
  9
$3DDWFPREC
 40
2.0
  9
$DIMSD2
 70
0
  9
$WORLDVIEW
 70
1
  9
$PUCSORGRIGHT
 10
0.0
 20
0.0
 30
0.0
  9
$PLIMCHECK
 70
0
  9
$DIMTFAC
 40
1.0
  9
$CMLJUST
 70
0
  9
$DWFFRAME
280
2
  9
$USRTIMER
 70
1
  9
$SURFU
 70
6
  9
$SURFV
 70
6
  9
$DIMASO
 70
1
  9
$PSOLWIDTH
 40
0.25
  9
$DIMDLE
 40
0.0
  9
$EXTMIN
 10
100000000000000000000.0
 20
100000000000000000000.0
 30
100000000000000000000.0
  9
$UCSORGLEFT
 10
0.0
 20
0.0
 30
0.0
  9
$OLESTARTUP
290
0
  9
$PUCSORGFRONT
 10
0.0
 20
0.0
 30
0.0
  9
$DIMDLI
 40
0.38
  9
$LUNITS
 70
2
  9
$DIMCLRD
 70
0
  9
$SHADEDIF
 70
70
  9
$DIMCLRE
 70
0
  9
$SPLINESEGS
 70
8
  9
$PUCSORGLEFT
 10
0.0
 20
0.0
 30
0.0
  9
$INTERSECTIONDISPLAY
280
0
  9
$DIMALTRND
 40
0.0
  9
$DIMRND
 40
0.0
  9
$DIMALT
 70
0
  9
$FINGERPRINTGUID
  2
{21E0632C-5961-464C-6534-11C8EDD5FFCE}
  9
$DIMCLRT
 70
0
  9
$DIMFXLON
 70
0
  9
$PUCSORGTOP
 10
0.0
 20
0.0
 30
0.0
  9
$OBSLTYPE
280
0
  9
$DIMTOH
 70
1
  9
$UCSORGFRONT
 10
0.0
 20
0.0
 30
0.0
  9
$VISRETAIN
 70
1
  9
$SHADEDGE
 70
3
  9
$CAMERADISPLAY
290
0
  9
$DIMTOL
 70
0
  9
$SURFTYPE
 70
6
  9
$VERSIONGUID
  2
{FAEB1C32-E019-11D5-929B-00C0DF256EC4}
  9
$CHAMFERA
 40
0.5
  9
$SURFTAB1
 70
6
  9
$CHAMFERB
 40
0.5
  9
$SURFTAB2
 70
6
  9
$CHAMFERC
 40
1.0
  9
$AUPREC
 70
2
  9
$NORTHDIRECTION
 40
0.0
  9
$CHAMFERD
 40
0.0
  9
$DIMTDEC
 70
4
  9
$PDMODE
 70
0
  9
$PLIMMIN
 10
-0.4252042669737648
 20
-0.6912976093368002
  9
$SPLFRAME
 70
0
  9
$SOLIDHIST
280
1
  9
$XEDIT
290
1
  9
$CAMERAHEIGHT
 40
0.0
  9
$DIMDSEP
 70
46
  9
$DIMARCSYM
 70
0
  9
$LIMCHECK
 70
0
  9
$PINSBASE
 10
182.37769573200251
 20
69.50570553232717
 30
0.0
  9
$ORTHOMODE
 70
1
  9
$PSVPSCALE
 40
22.489499919201691
  9
$CLAYER
  8
0
  9
$DIMSHO
 70
1
  9
$DIMTOFL
 70
0
  9
$LOFTMAG1
 40
0.0
  9
$DIMTXT
 40
2.5
  9
$DIMEXE
 40
1.25
  9
$TDINDWG
 40
0.0
  9
$LOFTMAG2
 40
0.0
  9
$REGENMODE
 70
1
  9
$ATTMODE
 70
1
  9
$CMLSCALE
 40
1.0
  9
$DIMTIH
 70
1
  9
$DIMZIN
 70
0
  9
$CEPSNTYPE
380
0
  9
$DIMFXL
 40
1.0
  9
$HIDETEXT
280
1
  9
$DIMSCALE
 40
1.0
  9
$INTERSECTIONCOLOR
 70
257
  9
$DIMALTD
 70
2
  9
$DIMAUNIT
 70
0
  9
$DIMEXO
 40
0.625
  9
$DIMALTF
 40
25.399999999999999
  9
$DGNFRAME
280
2
  9
$ENDCAPS
280
0
  0
ENDSEC
  0
SECTION
  2
TABLES
  0
TABLE
  2
VPORT
  5
8
100
AcDbSymbolTable
 70
1
  0
VPORT
  5
30
100
AcDbSymbolTableRecord
100
AcDbViewportTableRecord
  2
*Active
 70
0
 10
0.0
 20
0.0
 11
1.0
 21
1.0
 12
286.30555555555549
 22
148.5
 13
0.0
 23
0.0
 14
10.0
 24
10.0
 15
10.0
 25
10.0
 16
0.0
 26
0.0
 36
1.0
 17
0.0
 27
0.0
 37
0.0
 40
297.0
 41
1.92798353909465
 42
50.0
 43
0.0
 44
0.0
 50
0.0
 51
0.0
 71
0
 72
100
 73
1
 74
3
 75
1
 76
1
 77
0
 78
0
281
0
 65
1
110
0.0
120
0.0
130
0.0
111
1.0
121
0.0
131
0.0
112
0.0
122
1.0
132
0.0
 79
0
146
0.0
  0
ENDTAB
  0
TABLE
  2
LTYPE
  5
5
100
AcDbSymbolTable
 70
21
  0
LTYPE
  5
14
100
AcDbSymbolTableRecord
100
AcDbLinetypeTableRecord
  2
ByBlock
 70
0
  3

 72
65
 73
0
 40
0.0
  0
LTYPE
  5
15
100
AcDbSymbolTableRecord
100
AcDbLinetypeTableRecord
  2
ByLayer
 70
0
  3

 72
65
 73
0
 40
0.0
  0
LTYPE
  5
16
100
AcDbSymbolTableRecord
100
AcDbLinetypeTableRecord
  2
CONTINUOUS
 70
0
  3
Solid line
 72
65
 73
0
 40
0.0
  0
LTYPE
  5
31
100
AcDbSymbolTableRecord
100
AcDbLinetypeTableRecord
  2
DOT
 70
0
  3
Dot . . . . . . . . . . . . . . . . . . . . . .
 72
65
 73
2
 40
6.3499999999999996
 49
0.0
 74
0
 49
-6.3499999999999996
 74
0
  0
LTYPE
  5
32
100
AcDbSymbolTableRecord
100
AcDbLinetypeTableRecord
  2
DOT2
 70
0
  3
Dot (.5x) .....................................
 72
65
 73
2
 40
3.1749999999999998
 49
0.0
 74
0
 49
-3.1749999999999998
 74
0
  0
LTYPE
  5
33
100
AcDbSymbolTableRecord
100
AcDbLinetypeTableRecord
  2
DOTX2
 70
0
  3
Dot (2x) .  .  .  .  .  .  .  .  .  .  .  .  .
 72
65
 73
2
 40
12.699999999999999
 49
0.0
 74
0
 49
-12.699999999999999
 74
0
  0
LTYPE
  5
34
100
AcDbSymbolTableRecord
100
AcDbLinetypeTableRecord
  2
DASHED
 70
0
  3
Dashed __ __ __ __ __ __ __ __ __ __ __ __ __ _
 72
65
 73
2
 40
19.050000000000001
 49
12.699999999999999
 74
0
 49
-6.3499999999999996
 74
0
  0
LTYPE
  5
35
100
AcDbSymbolTableRecord
100
AcDbLinetypeTableRecord
  2
DASHED2
 70
0
  3
Dashed (.5x) _ _ _ _ _ _ _ _ _ _ _ _ _ _ _ _ _
 72
65
 73
2
 40
9.5250000000000004
 49
6.3499999999999996
 74
0
 49
-3.1749999999999998
 74
0
  0
LTYPE
  5
36
100
AcDbSymbolTableRecord
100
AcDbLinetypeTableRecord
  2
DASHEDX2
 70
0
  3
Dashed (2x) ____  ____  ____  ____  ____  ___
 72
65
 73
2
 40
38.100000000000001
 49
25.399999999999999
 74
0
 49
-12.699999999999999
 74
0
  0
LTYPE
  5
37
100
AcDbSymbolTableRecord
100
AcDbLinetypeTableRecord
  2
DASHDOT
 70
0
  3
Dash dot __ . __ . __ . __ . __ . __ . __ . __
 72
65
 73
4
 40
25.399999999999999
 49
12.699999999999999
 74
0
 49
-6.3499999999999996
 74
0
 49
0.0
 74
0
 49
-6.3499999999999996
 74
0
  0
LTYPE
  5
38
100
AcDbSymbolTableRecord
100
AcDbLinetypeTableRecord
  2
DASHDOT2
 70
0
  3
Dash dot (.5x) _._._._._._._._._._._._._._._.
 72
65
 73
4
 40
12.699999999999999
 49
6.3499999999999996
 74
0
 49
-3.1749999999999998
 74
0
 49
0.0
 74
0
 49
-3.1749999999999998
 74
0
  0
LTYPE
  5
39
100
AcDbSymbolTableRecord
100
AcDbLinetypeTableRecord
  2
DASHDOTX2
 70
0
  3
Dash dot (2x) ____  .  ____  .  ____  .  ___
 72
65
 73
4
 40
50.799999999999997
 49
25.399999999999999
 74
0
 49
-12.699999999999999
 74
0
 49
0.0
 74
0
 49
-12.699999999999999
 74
0
  0
LTYPE
  5
3A
100
AcDbSymbolTableRecord
100
AcDbLinetypeTableRecord
  2
DIVIDE
 70
0
  3
Divide ____ . . ____ . . ____ . . ____ . . ____
 72
65
 73
6
 40
31.75
 49
12.699999999999999
 74
0
 49
-6.3499999999999996
 74
0
 49
0.0
 74
0
 49
-6.3499999999999996
 74
0
 49
0.0
 74
0
 49
-6.3499999999999996
 74
0
  0
LTYPE
  5
3B
100
AcDbSymbolTableRecord
100
AcDbLinetypeTableRecord
  2
DIVIDE2
 70
0
  3
Divide (.5x) __..__..__..__..__..__..__..__.._
 72
65
 73
6
 40
15.875
 49
6.3499999999999996
 74
0
 49
-3.1749999999999998
 74
0
 49
0.0
 74
0
 49
-3.1749999999999998
 74
0
 49
0.0
 74
0
 49
-3.1749999999999998
 74
0
  0
LTYPE
  5
3C
100
AcDbSymbolTableRecord
100
AcDbLinetypeTableRecord
  2
DIVIDEX2
 70
0
  3
Divide (2x) ________  .  .  ________  .  .  _
 72
65
 73
6
 40
63.5
 49
25.399999999999999
 74
0
 49
-12.699999999999999
 74
0
 49
0.0
 74
0
 49
-12.699999999999999
 74
0
 49
0.0
 74
0
 49
-12.699999999999999
 74
0
  0
LTYPE
  5
3D
100
AcDbSymbolTableRecord
100
AcDbLinetypeTableRecord
  2
CENTER
 70
0
  3
Center ____ _ ____ _ ____ _ ____ _ ____ _ ____
 72
65
 73
4
 40
50.799999999999997
 49
31.75
 74
0
 49
-6.3499999999999996
 74
0
 49
6.3499999999999996
 74
0
 49
-6.3499999999999996
 74
0
  0
LTYPE
  5
3E
100
AcDbSymbolTableRecord
100
AcDbLinetypeTableRecord
  2
CENTER2
 70
0
  3
Center (.5x) ___ _ ___ _ ___ _ ___ _ ___ _ ___
 72
65
 73
4
 40
28.574999999999999
 49
19.050000000000001
 74
0
 49
-3.1749999999999998
 74
0
 49
3.1749999999999998
 74
0
 49
-3.1749999999999998
 74
0
  0
LTYPE
  5
3F
100
AcDbSymbolTableRecord
100
AcDbLinetypeTableRecord
  2
CENTERX2
 70
0
  3
Center (2x) ________  __  ________  __  _____
 72
65
 73
4
 40
101.59999999999999
 49
63.5
 74
0
 49
-12.699999999999999
 74
0
 49
12.699999999999999
 74
0
 49
-12.699999999999999
 74
0
  0
LTYPE
  5
40
100
AcDbSymbolTableRecord
100
AcDbLinetypeTableRecord
  2
BORDER
 70
0
  3
Border __ __ . __ __ . __ __ . __ __ . __ __ .
 72
65
 73
6
 40
44.450000000000003
 49
12.699999999999999
 74
0
 49
-6.3499999999999996
 74
0
 49
12.699999999999999
 74
0
 49
-6.3499999999999996
 74
0
 49
0.0
 74
0
 49
-6.3499999999999996
 74
0
  0
LTYPE
  5
41
100
AcDbSymbolTableRecord
100
AcDbLinetypeTableRecord
  2
BORDER2
 70
0
  3
Border (.5x) __.__.__.__.__.__.__.__.__.__.__.
 72
65
 73
6
 40
22.225000000000001
 49
6.3499999999999996
 74
0
 49
-3.1749999999999998
 74
0
 49
6.3499999999999996
 74
0
 49
-3.1749999999999998
 74
0
 49
0.0
 74
0
 49
-3.1749999999999998
 74
0
  0
LTYPE
  5
42
100
AcDbSymbolTableRecord
100
AcDbLinetypeTableRecord
  2
BORDERX2
 70
0
  3
Border (2x) ____  ____  .  ____  ____  .  ___
 72
65
 73
6
 40
88.900000000000006
 49
25.399999999999999
 74
0
 49
-12.699999999999999
 74
0
 49
25.399999999999999
 74
0
 49
-12.699999999999999
 74
0
 49
0.0
 74
0
 49
-12.699999999999999
 74
0
  0
ENDTAB
  0
TABLE
  2
LAYER
  5
2
100
AcDbSymbolTable
 70
1
  0
LAYER
  5
10
100
AcDbSymbolTableRecord
100
AcDbLayerTableRecord
  2
0
 70
0
 62
7
  6
CONTINUOUS
370
0
390
F
  0
ENDTAB
  0
TABLE
  2
STYLE
  5
3
100
AcDbSymbolTable
 70
1
  0
STYLE
  5
11
100
AcDbSymbolTableRecord
100
AcDbTextStyleTableRecord
  2
Standard
 70
0
 40
0.0
 41
0.75
 50
0.0
 71
0
 42
2.5
  3
txt
  4

  0
ENDTAB
  0
TABLE
  2
VIEW
  5
6
100
AcDbSymbolTable
 70
0
  0
ENDTAB
  0
TABLE
  2
UCS
  5
7
100
AcDbSymbolTable
 70
0
  0
ENDTAB
  0
TABLE
  2
APPID
  5
9
100
AcDbSymbolTable
 70
1
  0
APPID
  5
12
100
AcDbSymbolTableRecord
100
AcDbRegAppTableRecord
  2
ACAD
 70
0
  0
ENDTAB
  0
TABLE
  2
DIMSTYLE
  5
A
100
AcDbSymbolTable
 70
1
100
AcDbDimStyleTable
 71
0
  0
DIMSTYLE
105
27
100
AcDbSymbolTableRecord
100
AcDbDimStyleTableRecord
  2
Standard
 41
2.5
 42
0.625
 43
3.75
 44
1.25
 70
0
 73
0
 74
0
 77
1
 78
8
140
2.5
141
2.5
143
0.03937007874016
147
0.625
171
3
172
1
271
2
272
2
274
3
278
44
283
0
284
8
340
11
  0
ENDTAB
  0
TABLE
  2
BLOCK_RECORD
  5
1
100
AcDbSymbolTable
 70
1
  0
BLOCK_RECORD
  5
1F
100
AcDbSymbolTableRecord
100
AcDbBlockTableRecord
  2
*Model_Space
340
22
  0
BLOCK_RECORD
  5
1B
100
AcDbSymbolTableRecord
100
AcDbBlockTableRecord
  2
*Paper_Space
340
1E
  0
BLOCK_RECORD
  5
23
100
AcDbSymbolTableRecord
100
AcDbBlockTableRecord
  2
*Paper_Space0
340
26
  0
ENDTAB
  0
ENDSEC
  0
SECTION
  2
BLOCKS
  0
BLOCK
  5
20
100
AcDbEntity
  8
0
100
AcDbBlockBegin
  2
*Model_Space
 70
0
 10
0.0
 20
0.0
 30
0.0
  3
*Model_Space
  1

  0
ENDBLK
  5
21
100
AcDbEntity
  8
0
100
AcDbBlockEnd
  0
BLOCK
  5
1C
100
AcDbEntity
 67
1
  8
0
100
AcDbBlockBegin
  2
*Paper_Space
 70
0
 10
0.0
 20
0.0
 30
0.0
  3
*Paper_Space
  1

  0
ENDBLK
  5
1D
100
AcDbEntity
 67
1
  8
0
100
AcDbBlockEnd
  0
BLOCK
  5
24
100
AcDbEntity
  8
0
100
AcDbBlockBegin
  2
*Paper_Space0
 70
0
 10
0.0
 20
0.0
 30
0.0
  3
*Paper_Space0
  1

  0
ENDBLK
  5
25
100
AcDbEntity
  8
0
100
AcDbBlockEnd
  0
ENDSEC
  0
SECTION
  2
ENTITIES
  0
LINE
  5
43
100
AcDbEntity
100
AcDbLine
  8
0
 62
256
370
-1
  6
ByLayer
 10
-0.1
 20
3.6000000000000001
 30
0.0
 11
-0.4
 21
3.6000000000000001
 31
0.0
  0
LINE
  5
44
100
AcDbEntity
100
AcDbLine
  8
0
 62
256
370
-1
  6
ByLayer
 10
-0.4
 20
3.6000000000000001
 30
0.0
 11
-1.0
 21
0.5999999999999999
 31
0.0
  0
LINE
  5
45
100
AcDbEntity
100
AcDbLine
  8
0
 62
256
370
-1
  6
ByLayer
 10
0.0
 20
0.0
 30
0.0
 11
0.0
 21
0.6
 31
0.0
  0
LINE
  5
46
100
AcDbEntity
100
AcDbLine
  8
0
 62
256
370
-1
  6
ByLayer
 10
0.0
 20
0.6
 30
0.0
 11
-0.1
 21
3.6000000000000001
 31
0.0
  0
MTEXT
  5
47
100
AcDbEntity
100
AcDbMText
  8
0
 62
256
370
-1
  6
ByLayer
 10
0.0255727026744507
 20
0.111382636082007
 30
0.0
 40
0.05
 41
100.0
 71
1
 72
2
  1
(0,0)
  7
standard
 50
0.0
 73
0
 44
1.0
  0
MTEXT
  5
48
100
AcDbEntity
100
AcDbMText
  8
0
 62
256
370
-1
  6
ByLayer
 10
0.0468566912033834
 20
0.7165870048589901
 30
0.0
 40
0.05
 41
100.0
 71
1
 72
2
  1
(0,heelHLeft)
  7
standard
 50
0.0
 73
0
 44
1.0
  0
LINE
  5
49
100
AcDbEntity
100
AcDbLine
  8
0
 62
256
370
-1
  6
ByLayer
 10
1.477211629518312
 20
0.2604722665003955
 30
0.0
 11
1.477211629518312
 21
0.7055151163941652
 31
0.0
  0
LINE
  5
4A
100
AcDbEntity
100
AcDbLine
  8
0
 62
256
370
-1
  6
ByLayer
 10
0.0
 20
0.6
 30
0.0
 11
1.477211629518312
 21
0.7055151163941652
 31
0.0
  0
MTEXT
  5
4B
100
AcDbEntity
100
AcDbMText
  8
0
 62
256
370
-1
  6
ByLayer
 10
1.452383799465566
 20
0.1943703279772977
 30
0.0
 40
0.05
 41
100.0
 71
1
 72
2
  1
(heelB, heelB X tan(baseAlpha) )
  7
standard
 50
0.0
 73
0
 44
1.0
  0
MTEXT
  5
4C
100
AcDbEntity
100
AcDbMText
  8
0
 62
256
370
-1
  6
ByLayer
 10
1.51451175307117
 20
0.7214373439380909
 30
0.0
 40
0.05
 41
100.0
 71
1
 72
2
  1
(heelB, heelB X tan(alpha)  + heelHRight )
  7
standard
 50
0.0
 73
0
 44
1.0
  0
LINE
  5
4D
100
AcDbEntity
100
AcDbLine
  8
0
 62
256
370
-1
  6
ByLayer
 10
-1.0
 20
0.5999999999999999
 30
0.0
 11
-1.0
 21
-0.176326980708465
 31
0.0
  0
LINE
  5
4E
100
AcDbEntity
100
AcDbLine
  8
0
 62
256
370
-1
  6
ByLayer
 10
-2.4417954229649612
 20
-0.4305544144391609
 30
0.0
 11
1.477211629518312
 21
0.2604722665003955
 31
0.0
  0
LINE
  5
4F
100
AcDbEntity
100
AcDbLine
  8
0
 62
256
370
-1
  6
ByLayer
 10
-2.4417954229649612
 20
-0.4305544144391609
 30
0.0
 11
-2.4417954229649612
 21
-0.0243837696848629
 31
0.0
  0
LINE
  5
50
100
AcDbEntity
100
AcDbLine
  8
0
 62
256
370
-1
  6
ByLayer
 10
-2.4417954229649612
 20
-0.0243837696848629
 30
0.0
 11
-1.0
 21
0.5999999999999999
 31
0.0
  0
MTEXT
  5
51
100
AcDbEntity
100
AcDbMText
  8
0
 62
256
370
-1
  6
ByLayer
 10
-0.0549755813888004
 20
3.5470245112054011
 30
0.0
 40
0.05
 41
100.0
 71
1
 72
2
  1
(- (stemH-heelHLeft) X tan(beta), stemH)
  7
standard
 50
0.0
 73
0
 44
1.0
  0
LINE
  5
52
100
AcDbEntity
100
AcDbLine
  8
0
 62
256
370
-1
  6
ByLayer
 10
0.2971021424215283
 20
0.0523871237352045
 30
0.0
 11
0.2971021424215281
 21
-0.3537835210190934
 31
0.0
  0
LINE
  5
53
100
AcDbEntity
100
AcDbLine
  8
0
 62
256
370
-1
  6
ByLayer
 10
0.6971021424215286
 20
0.1229179160185905
 30
0.0
 11
0.6971021424215286
 21
-0.3537835210190934
 31
0.0
  0
MTEXT
  5
54
100
AcDbEntity
100
AcDbMText
  8
0
 62
256
370
-1
  6
ByLayer
 10
-0.4097130522056267
 20
-0.156760569975219
 30
0.0
 40
0.05
 41
100.0
 71
1
 72
2
  1
(keyY,  keyY * tan(baseAlpha) )
  7
standard
 50
0.0
 73
0
 44
1.0
  0
MTEXT
  5
55
100
AcDbEntity
100
AcDbMText
  8
0
 62
256
370
-1
  6
ByLayer
 10
0.7705210029984217
 20
0.005875775377095
 30
0.0
 40
0.05
 41
100.0
 71
1
 72
2
  1
(keyY + keyB, (keyY + keyB) X tan(baseAlpha) )
  7
standard
 50
0.0
 73
0
 44
1.0
  0
LINE
  5
56
100
AcDbEntity
100
AcDbLine
  8
0
 62
256
370
-1
  6
ByBlock
 10
0.2971021424215281
 20
-0.3537835210190934
 30
0.0
 11
0.6971021424215286
 21
-0.3537835210190934
 31
0.0
  0
MTEXT
  5
57
100
AcDbEntity
100
AcDbMText
  8
0
 62
256
370
-1
  6
ByBlock
 10
-0.5967159908404256
 20
3.8305899681569491
 30
0.0
 40
0.05
 41
2.5499782873217018
 71
1
 72
2
  1
(- (stemH-heelHLeft) * tan(beta) - stemTTop, \PstemH)
  7
standard
 50
0.0
 73
0
 44
1.0
  0
MTEXT
  5
58
100
AcDbEntity
100
AcDbMText
  8
0
 62
256
370
-1
  6
ByBlock
 10
-1.7335275346733821
 20
0.0009385087386318
 30
0.0
 40
0.05
 41
0.8614186379808111
 71
1
 72
2
  1
(- stemTBottom,\P- stemTBottom * tan(baseAlpha) )
  7
standard
 50
0.0
 73
0
 44
1.0
  0
MTEXT
  5
59
100
AcDbEntity
100
AcDbMText
  8
0
 62
256
370
-1
  6
ByBlock
 10
-1.9813485463973901
 20
0.7460638483570348
 30
0.0
 40
0.05
 41
1.0541730409153811
 71
1
 72
2
  1
(- stemTBottom,\P- stemTBottom * tan(baseAlpha)  + toeHRight)
  7
standard
 50
0.0
 73
0
 44
1.0
  0
MTEXT
  5
5A
100
AcDbEntity
100
AcDbMText
  8
0
 62
256
370
-1
  6
ByBlock
 10
-3.1904793363433002
 20
-0.4027562988820452
 30
0.0
 40
0.05
 41
1.8130449107470039
 71
1
 72
2
  1
(- (stemTBottom+toeB),\P- (stemTBottom+toeB) * tan(baseAlpha) )
  7
standard
 50
0.0
 73
0
 44
1.0
  0
MTEXT
  5
5B
100
AcDbEntity
100
AcDbMText
  8
0
 62
256
370
-1
  6
ByBlock
 10
-3.6414606304298691
 20
0.099538195167356
 30
0.0
 40
0.05
 41
1.1494467734801259
 71
1
 72
2
  1
(- (stemTBottom+toeB), \P- (stemTBottom+toeB) * tan(baseAlpha)  + toeHLeft)
  7
standard
 50
0.0
 73
0
 44
1.0
  0
LINE
  5
5C
100
AcDbEntity
100
AcDbLine
  8
0
 62
256
370
-1
  6
ByBlock
 10
-0.0814336427359947
 20
3.04300928207984
 30
0.0
 11
1.477211629518312
 21
3.35090046786179
 31
0.0
  0
LINE
  5
5D
100
AcDbEntity
100
AcDbLine
  8
0
 62
256
370
-1
  6
ByBlock
 10
1.477211629518312
 20
0.7055151163941651
 30
0.0
 11
1.477211629518312
 21
3.35090046786179
 31
0.0
  0
MTEXT
  5
5E
100
AcDbEntity
100
AcDbMText
  8
0
 62
256
370
-1
  6
ByLayer
 10
4.1472502006225573
 20
1.6943968469999711
 30
0.0
 40
0.05
 41
100.0
 71
1
 72
2
  1
0 (0,heelHLeft)
  7
standard
 50
0.0
 73
0
 44
1.0
  0
MTEXT
  5
5F
100
AcDbEntity
100
AcDbMText
  8
0
 62
256
370
-1
  6
ByLayer
 10
5.6149052624903426
 20
1.699247186079071
 30
0.0
 40
0.05
 41
100.0
 71
1
 72
2
  1
1 (heelB, heelB X tan(alpha)  + heelHRight )
  7
standard
 50
0.0
 73
0
 44
1.0
  0
LINE
  5
60
100
AcDbEntity
100
AcDbLine
  8
0
 62
256
370
-1
  6
ByBlock
 10
4.0189598666831792
 20
4.0208191242208207
 30
0.0
 11
5.5776051389374857
 21
4.3287103100027702
 31
0.0
  0
LINE
  5
61
100
AcDbEntity
100
AcDbLine
  8
0
 62
256
370
-1
  6
ByBlock
 10
5.5776051389374857
 20
1.683324958535146
 30
0.0
 11
5.5776051389374857
 21
4.3287103100027702
 31
0.0
  0
MTEXT
  5
62
100
AcDbEntity
100
AcDbMText
  8
0
 62
256
370
-1
  6
ByBlock
 10
4.1122303221489487
 20
3.9269052146560131
 30
0.0
 40
0.05
 41
0.9463868415428778
 71
1
 72
2
  1
3 (- (soilUpZ-heelHLeft) * tan(beta), soilUpZ)
  7
standard
 50
0.0
 73
0
 44
1.0
  0
LINE
  5
63
100
AcDbEntity
100
AcDbLine
  8
0
 62
256
370
-1
  6
ByBlock
 10
4.0189598666831792
 20
4.0208191242208207
 30
0.0
 11
5.5776051389374857
 21
4.0208191242208198
 31
0.0
  0
MTEXT
  5
64
100
AcDbEntity
100
AcDbMText
  8
0
 62
256
370
-1
  6
ByBlock
 10
5.6658820536818393
 20
4.0467808812514452
 30
0.0
 40
0.05
 41
0.9463868415428778
 71
1
 72
2
  1
(heelB, soilUpZ)
  7
standard
 50
0.0
 73
0
 44
1.0
  0
MTEXT
  5
65
100
AcDbEntity
100
AcDbMText
  8
0
 62
256
370
-1
  6
ByBlock
 10
5.6658820536818393
 20
4.4556199967979682
 30
0.0
 40
0.05
 41
0.9463868415428778
 71
1
 72
2
  1
2 (heelB, soilUpZ + ((soilUpZ-heelHLeft) * tan(beta) + heelB) * tan(i))
  7
standard
 50
0.0
 73
0
 44
1.0
  0
LINE
  5
66
100
AcDbEntity
100
AcDbLine
  8
0
 62
256
370
-1
  6
ByLayer
 10
4.1003935094191739
 20
1.577809842140981
 30
0.0
 11
5.5776051389374857
 21
1.683324958535146
 31
0.0
  0
LINE
  5
67
100
AcDbEntity
100
AcDbLine
  8
0
 62
256
370
-1
  6
ByLayer
 10
4.1003935094191739
 20
1.577809842140981
 30
0.0
 11
4.0003935094191743
 21
4.5778098421409803
 31
0.0
  0
LINE
  5
68
100
AcDbEntity
100
AcDbLine
  8
0
 62
256
370
-1
  6
ByLayer
 10
5.5776051389374857
 20
1.238282108641376
 30
0.0
 11
5.5776051389374857
 21
1.683324958535146
 31
0.0
  0
MTEXT
  5
69
100
AcDbEntity
100
AcDbMText
  8
0
 62
256
370
-1
  6
ByLayer
 10
-0.3326106128482502
 20
-0.4561231364623879
 30
0.0
 40
0.05
 41
100.0
 71
1
 72
2
  1
(keyY, keyY * tan(baseAlpha)  - keyH )
  7
standard
 50
0.0
 73
0
 44
1.0
  0
MTEXT
  5
6A
100
AcDbEntity
100
AcDbMText
  8
0
 62
256
370
-1
  6
ByLayer
 10
0.7158364970765294
 20
-0.3959341637957652
 30
0.0
 40
0.05
 41
100.0
 71
1
 72
2
  1
(keyY + keyB, keyY * tan(baseAlpha) - keyH )
  7
standard
 50
0.0
 73
0
 44
1.0
  0
LINE
  5
6B
100
AcDbEntity
100
AcDbLine
  8
0
 62
256
370
-1
  6
ByLayer
 10
-2.4417954229649612
 20
-2.855188678085236
 30
0.0
 11
1.477211629518312
 21
-2.1641619971456789
 31
0.0
  0
LINE
  5
6C
100
AcDbEntity
100
AcDbLine
  8
0
 62
256
370
-1
  6
ByBlock
 10
-0.5659694017296495
 20
-1.573607120883169
 30
0.0
 11
-0.5659694017296499
 21
-2.5244299394264398
 31
0.0
  0
LINE
  5
6D
100
AcDbEntity
100
AcDbLine
  8
0
 62
256
370
-1
  6
ByBlock
 10
0.2423301322368216
 20
-2.5244299394264398
 30
0.0
 11
-0.5659694017296499
 21
-2.5244299394264398
 31
0.0
  0
LINE
  5
6E
100
AcDbEntity
100
AcDbLine
  8
0
 62
256
370
-1
  6
ByBlock
 10
-0.5659694017296502
 20
-2.5244299394264411
 30
0.0
 11
-0.4079432424852728
 21
-2.447574400258353
 31
0.0
  0
LINE
  5
6F
100
AcDbEntity
100
AcDbLine
  8
0
 62
256
370
-1
  6
ByBlock
 10
-0.5659694017296498
 20
-2.5244299394264398
 30
0.0
 11
-0.6255562631137254
 21
-2.3902171483898722
 31
0.0
  0
LINE
  5
70
100
AcDbEntity
100
AcDbLine
  8
0
 62
256
370
-1
  6
ByBlock
 10
0.2423301322368216
 20
-2.5244299394264398
 30
0.0
 11
0.2179569189800774
 21
-2.386202578197798
 31
0.0
  0
LINE
  5
71
100
AcDbEntity
100
AcDbLine
  8
0
 62
256
370
-1
  6
ByBlock
 10
-0.7285696800673917
 20
-1.602277937024819
 30
0.0
 11
-0.5659694017296486
 21
-2.5244299394264398
 31
0.0
  0
LINE
  5
72
100
AcDbEntity
100
AcDbLine
  8
0
 62
256
370
-1
  6
ByBlock
 10
-0.7285696800673917
 20
-1.602277937024819
 30
0.0
 11
-0.5659694017296495
 21
-1.573607120883169
 31
0.0
  0
LINE
  5
73
100
AcDbEntity
100
AcDbLine
  8
0
 62
256
370
-1
  6
ByLayer
 10
-2.08209463518928
 20
-4.5282155979721246
 30
0.0
 11
1.836912417293993
 21
-3.8371889170325679
 31
0.0
  0
LINE
  5
74
100
AcDbEntity
100
AcDbLine
  8
0
 62
256
370
-1
  6
ByBlock
 10
-0.2062686139539689
 20
-4.1974568593133288
 30
0.0
 11
-0.0482424547095915
 21
-4.1206013201452407
 31
0.0
  0
LINE
  5
75
100
AcDbEntity
100
AcDbLine
  8
0
 62
256
370
-1
  6
ByBlock
 10
-0.2062686139539686
 20
-4.1974568593133288
 30
0.0
 11
-0.2658554753380441
 21
-4.0632440682767603
 31
0.0
  0
LINE
  5
76
100
AcDbEntity
100
AcDbLine
  8
0
 62
256
370
-1
  6
ByBlock
 10
-0.3688688922917104
 20
-3.2753048569117071
 30
0.0
 11
-0.2062686139539673
 21
-4.1974568593133288
 31
0.0
  0
LINE
  5
77
100
AcDbEntity
100
AcDbLine
  8
0
 62
256
370
-1
  6
ByBlock
 10
-0.2062686139539707
 20
-4.1974568593133297
 30
0.0
 11
-0.9784725118185886
 21
-4.1974568593133297
 31
0.0
  0
LINE
  5
78
100
AcDbEntity
100
AcDbLine
  8
0
 62
256
370
-1
  6
ByBlock
 10
-0.2062686139539666
 20
-4.1974568593133332
 30
0.0
 11
1.337746261364976
 21
-4.1974568593133332
 31
0.0
  0
LINE
  5
79
100
AcDbEntity
100
AcDbLine
  8
0
 62
256
370
-1
  6
ByBlock
 10
-0.2062686139539926
 20
-4.1974568593133332
 30
0.0
 11
-0.2062686139539926
 21
-3.0905880828801648
 31
0.0
  0
LINE
  5
7A
100
AcDbEntity
100
AcDbLine
  8
0
 62
256
370
-1
  6
ByBlock
 10
0.5776577067557587
 20
-4.0592294980846866
 30
0.0
 11
0.5776577067557587
 21
-4.1974568593133332
 31
0.0
  0
LINE
  5
7B
100
AcDbEntity
100
AcDbLine
  8
0
 62
256
370
-1
  6
ByBlock
 10
-0.3688688922917104
 20
-3.2753048569117071
 30
0.0
 11
-0.3688688922917104
 21
-4.1974568593133297
 31
0.0
  0
MTEXT
  5
7C
100
AcDbEntity
100
AcDbMText
  8
0
 62
256
370
-1
  6
ByLayer
 10
5.6274641566324739
 20
1.222677156686925
 30
0.0
 40
0.05
 41
100.0
 71
1
 72
2
  1
(heelB, heelB X tan(baseAlpha) )
  7
standard
 50
0.0
 73
0
 44
1.0
  0
LINE
  5
7D
100
AcDbEntity
100
AcDbLine
  8
0
 62
256
370
-1
  6
ByLayer
 10
-5.4821563331027372
 20
5.6598377293491975
 30
0.0
 11
-6.0821563331027377
 21
2.6598377293491957
 31
0.0
  0
LINE
  5
7E
100
AcDbEntity
100
AcDbLine
  8
0
 62
256
370
-1
  6
ByLayer
 10
-7.5239517560676994
 20
2.0354539596643333
 30
0.0
 11
-6.0821563331027377
 21
2.6598377293491957
 31
0.0
  0
MTEXT
  5
7F
100
AcDbEntity
100
AcDbMText
  8
0
 62
256
370
-1
  6
ByLayer
 10
-5.8564900855774811
 20
2.5666425807059694
 30
0.0
 40
0.05
 41
100.0
 71
1
 72
2
  1
(- stemTBottom, - stemTBottom * tan(alpha)  + toeHRight)
  7
standard
 50
0.0
 73
0
 44
1.0
  0
MTEXT
  5
80
100
AcDbEntity
100
AcDbMText
  8
0
 62
256
370
-1
  6
ByLayer
 10
-5.4479746397478754
 20
5.2405618624997441
 30
0.0
 40
0.05
 41
100.0
 71
1
 72
2
  1
(- stemTBottom + counterfortH * tan(delta), - stemTBottom * tan(alpha)  + toeHRight + counterfortH)
  7
standard
 50
0.0
 73
0
 44
1.0
  0
MTEXT
  5
81
100
AcDbEntity
100
AcDbMText
  8
0
 62
256
370
-1
  6
ByLayer
 10
-7.450938249906355
 20
1.8932110578838364
 30
0.0
 40
0.05
 41
100.0
 71
1
 72
2
  1
(- (stemTBottom + counterfortBBottom), - stemTBottom * tan(alpha)  + toeHRight - counterfortBBottom * tan(gamma) )
  7
standard
 50
0.0
 73
0
 44
1.0
  0
MTEXT
  5
82
100
AcDbEntity
100
AcDbMText
  8
0
 62
256
370
-1
  6
ByLayer
 10
-8.7742825294928668
 20
5.460867443047249
 30
0.0
 40
0.05
 41
100.0
 71
1
 72
2
  1
(- stemTBottom + counterfortH * tan(delta) - counterfortBTop, - stemTBottom * tan(alpha)  + toeHRight + counterfortH)
  7
standard
 50
0.0
 73
0
 44
1.0
  0
LINE
  5
83
100
AcDbEntity
100
AcDbLine
  8
0
 62
256
370
-1
  6
ByLayer
 10
-6.7379804180970115
 20
5.2204898423410402
 30
0.0
 11
-7.2314306577009164
 21
2.1621331148353278
 31
0.0
  0
LINE
  5
84
100
AcDbEntity
100
AcDbLine
  8
0
 62
256
370
-1
  6
ByLayer
 10
-5.570025910504369
 20
5.2204898423410402
 30
0.0
 11
-6.7379804180970115
 21
5.2204898423410402
 31
0.0
  0
LINE
  5
85
100
AcDbEntity
100
AcDbLine
  8
0
 62
256
370
-1
  6
ByBlock
 10
-6.0821563331027377
 20
2.6598377293491957
 30
0.0
 11
-6.0821563331027377
 21
3.630322361091304
 31
0.0
  0
MTEXT
  5
86
100
AcDbEntity
100
AcDbMText
  8
0
 62
256
370
-1
  6
ByBlock
 10
-6.047847330367575
 20
3.5682999530439492
 30
0.0
 40
0.05
 41
0.4393253903354246
 71
1
 72
2
  1
delta
  7
standard
 50
0.0
 73
0
 44
1.0
  0
LINE
  5
87
100
AcDbEntity
100
AcDbLine
  8
0
 62
256
370
-1
  6
ByBlock
 10
-7.5239517560676994
 20
2.0354539596643333
 30
0.0
 11
-6.4912106378935812
 21
2.0354539596643333
 31
0.0
  0
MTEXT
  5
88
100
AcDbEntity
100
AcDbMText
  8
0
 62
256
370
-1
  6
ByBlock
 10
-7.2087485226601729
 20
2.1424104451193484
 30
0.0
 40
0.05
 41
0.4393253903354246
 71
1
 72
2
  1
gamma
  7
standard
 50
0.0
 73
0
 44
1.0
  0
LINE
  5
89
100
AcDbEntity
100
AcDbLine
  8
0
 62
256
370
-1
  6
ByLayer
 10
-0.0128722338735082
 20
27.11153569886109
 30
0.0
 11
-0.3128722338735083
 21
27.11153569886109
 31
0.0
  0
LINE
  5
8A
100
AcDbEntity
100
AcDbLine
  8
0
 62
256
370
-1
  6
ByLayer
 10
-0.3128722338735083
 20
27.11153569886109
 30
0.0
 11
-0.9128722338735082
 21
24.11153569886109
 31
0.0
  0
LINE
  5
8B
100
AcDbEntity
100
AcDbLine
  8
0
 62
256
370
-1
  6
ByLayer
 10
0.0871277661264918
 20
23.511535698861088
 30
0.0
 11
0.0871277661264918
 21
24.11153569886109
 31
0.0
  0
LINE
  5
8C
100
AcDbEntity
100
AcDbLine
  8
0
 62
256
370
-1
  6
ByLayer
 10
0.0871277661264918
 20
24.11153569886109
 30
0.0
 11
-0.0128722338735082
 21
27.11153569886109
 31
0.0
  0
LINE
  5
8D
100
AcDbEntity
100
AcDbLine
  8
0
 62
256
370
-1
  6
ByLayer
 10
-0.9128722338735082
 20
24.11153569886109
 30
0.0
 11
-0.9128722338735082
 21
23.335208718152625
 31
0.0
  0
LINE
  5
8E
100
AcDbEntity
100
AcDbLine
  8
0
 62
256
370
-1
  6
ByLayer
 10
-0.9128722338735082
 20
23.335208718152625
 30
0.0
 11
0.0871277661264918
 21
23.511535698861088
 31
0.0
  0
MTEXT
  5
8F
100
AcDbEntity
100
AcDbMText
  8
0
 62
256
370
-1
  6
ByLayer
 10
0.1127004688009425
 20
23.622918334943094
 30
0.0
 40
0.05
 41
100.0
 71
1
 72
2
  1
0
  7
standard
 50
0.0
 73
0
 44
1.0
  0
MTEXT
  5
90
100
AcDbEntity
100
AcDbMText
  8
0
 62
256
370
-1
  6
ByLayer
 10
0.1339844573298752
 20
24.228122703720079
 30
0.0
 40
0.05
 41
100.0
 71
1
 72
2
  1
1
  7
standard
 50
0.0
 73
0
 44
1.0
  0
MTEXT
  5
91
100
AcDbEntity
100
AcDbMText
  8
0
 62
256
370
-1
  6
ByBlock
 10
-1.0278693452628875
 20
23.350109971487669
 30
0.0
 40
0.05
 41
0.8614186379808111
 71
1
 72
2
  1
5
  7
standard
 50
0.0
 73
0
 44
1.0
  0
MTEXT
  5
92
100
AcDbEntity
100
AcDbMText
  8
0
 62
256
370
-1
  6
ByBlock
 10
-1.0282781876732947
 20
24.172551614016573
 30
0.0
 40
0.05
 41
1.0541730409153811
 71
1
 72
2
  1
4
  7
standard
 50
0.0
 73
0
 44
1.0
  0
MTEXT
  5
93
100
AcDbEntity
100
AcDbMText
  8
0
 62
256
370
-1
  6
ByBlock
 10
-0.4245402915123835
 20
27.125640018868637
 30
0.0
 40
0.05
 41
2.5499782873217018
 71
1
 72
2
  1
3
  7
standard
 50
0.0
 73
0
 44
1.0
  0
MTEXT
  5
94
100
AcDbEntity
100
AcDbMText
  8
0
 62
256
370
-1
  6
ByLayer
 10
0.0321521847376914
 20
27.145649293664878
 30
0.0
 40
0.05
 41
100.0
 71
1
 72
2
  1
2
  7
standard
 50
0.0
 73
0
 44
1.0
  0
LINE
  5
95
100
AcDbEntity
100
AcDbLine
  8
0
 62
256
370
-1
  6
ByLayer
 10
0.6929514448125764
 20
23.651407959405045
 30
0.0
 11
0.6929514448125764
 21
24.251407959405046
 31
0.0
  0
LINE
  5
96
100
AcDbEntity
100
AcDbLine
  8
0
 62
256
370
-1
  6
ByLayer
 10
2.1701630743308882
 20
23.911880225905442
 30
0.0
 11
2.1701630743308882
 21
24.356923075799209
 31
0.0
  0
LINE
  5
97
100
AcDbEntity
100
AcDbLine
  8
0
 62
256
370
-1
  6
ByLayer
 10
0.6929514448125764
 20
24.251407959405046
 30
0.0
 11
2.1701630743308882
 21
24.356923075799209
 31
0.0
  0
LINE
  5
98
100
AcDbEntity
100
AcDbLine
  8
0
 62
256
370
-1
  6
ByLayer
 10
0.6929514448125764
 20
23.651407959405045
 30
0.0
 11
2.1701630743308882
 21
23.911880225905442
 31
0.0
  0
MTEXT
  5
99
100
AcDbEntity
100
AcDbMText
  8
0
 62
256
370
-1
  6
ByLayer
 10
0.607188671295906
 20
23.670011031994449
 30
0.0
 40
0.05
 41
100.0
 71
1
 72
2
  1
0
  7
standard
 50
0.0
 73
0
 44
1.0
  0
MTEXT
  5
9A
100
AcDbEntity
100
AcDbMText
  8
0
 62
256
370
-1
  6
ByLayer
 10
0.5913608344277987
 20
24.275215400771433
 30
0.0
 40
0.05
 41
100.0
 71
1
 72
2
  1
3
  7
standard
 50
0.0
 73
0
 44
1.0
  0
MTEXT
  5
9B
100
AcDbEntity
100
AcDbMText
  8
0
 62
256
370
-1
  6
ByLayer
 10
2.213648502116587
 20
24.434698345671539
 30
0.0
 40
0.05
 41
100.0
 71
1
 72
2
  1
2
  7
standard
 50
0.0
 73
0
 44
1.0
  0
MTEXT
  5
9C
100
AcDbEntity
100
AcDbMText
  8
0
 62
256
370
-1
  6
ByLayer
 10
2.2071882866065429
 20
23.9323725466421
 30
0.0
 40
0.05
 41
100.0
 71
1
 72
2
  1
1
  7
standard
 50
0.0
 73
0
 44
1.0
  0
LINE
  5
9D
100
AcDbEntity
100
AcDbLine
  8
0
 62
256
370
-1
  6
ByLayer
 10
0.9845949646186512
 20
23.351779609868021
 30
0.0
 11
0.9845949646186503
 21
22.945608965113724
 31
0.0
  0
LINE
  5
9E
100
AcDbEntity
100
AcDbLine
  8
0
 62
256
370
-1
  6
ByLayer
 10
1.3845949646186515
 20
23.422310402151407
 30
0.0
 11
1.3845949646186515
 21
22.945608965113724
 31
0.0
  0
LINE
  5
9F
100
AcDbEntity
100
AcDbLine
  8
0
 62
256
370
-1
  6
ByBlock
 10
0.9845949646186503
 20
22.945608965113724
 30
0.0
 11
1.3845949646186515
 21
22.945608965113724
 31
0.0
  0
LINE
  5
A0
100
AcDbEntity
100
AcDbLine
  8
0
 62
256
370
-1
  6
ByLayer
 10
0.9845949646186512
 20
23.351779609868021
 30
0.0
 11
1.3845949646186515
 21
23.422310402151407
 31
0.0
  0
MTEXT
  5
A1
100
AcDbEntity
100
AcDbMText
  8
0
 62
256
370
-1
  6
ByLayer
 10
0.9111549234343184
 20
23.385095842084926
 30
0.0
 40
0.05
 41
100.0
 71
1
 72
2
  1
0
  7
standard
 50
0.0
 73
0
 44
1.0
  0
MTEXT
  5
A2
100
AcDbEntity
100
AcDbMText
  8
0
 62
256
370
-1
  6
ByLayer
 10
0.9140337119976139
 20
22.962027190940958
 30
0.0
 40
0.05
 41
100.0
 71
1
 72
2
  1
1
  7
standard
 50
0.0
 73
0
 44
1.0
  0
MTEXT
  5
A3
100
AcDbEntity
100
AcDbMText
  8
0
 62
256
370
-1
  6
ByLayer
 10
1.4330187795912845
 20
22.957888999586043
 30
0.0
 40
0.05
 41
100.0
 71
1
 72
2
  1
2
  7
standard
 50
0.0
 73
0
 44
1.0
  0
MTEXT
  5
A4
100
AcDbEntity
100
AcDbMText
  8
0
 62
256
370
-1
  6
ByLayer
 10
1.4382208516504558
 20
23.458663806484346
 30
0.0
 40
0.05
 41
100.0
 71
1
 72
2
  1
3
  7
standard
 50
0.0
 73
0
 44
1.0
  0
LINE
  5
A5
100
AcDbEntity
100
AcDbLine
  8
0
 62
256
370
-1
  6
ByLayer
 10
-1.7036312813181329
 20
23.925798311173878
 30
0.0
 11
-1.7036312813181329
 21
23.149471330465413
 31
0.0
  0
LINE
  5
A6
100
AcDbEntity
100
AcDbLine
  8
0
 62
256
370
-1
  6
ByLayer
 10
-3.1454267042830946
 20
22.895243896734716
 30
0.0
 11
-3.1454267042830946
 21
23.301414541489013
 31
0.0
  0
LINE
  5
A7
100
AcDbEntity
100
AcDbLine
  8
0
 62
256
370
-1
  6
ByLayer
 10
-3.1454267042830946
 20
23.301414541489013
 30
0.0
 11
-1.7036312813181329
 21
23.925798311173878
 31
0.0
  0
LINE
  5
A8
100
AcDbEntity
100
AcDbLine
  8
0
 62
256
370
-1
  6
ByLayer
 10
-3.1454267042830946
 20
22.895243896734716
 30
0.0
 11
-1.7036312813181329
 21
23.149471330465413
 31
0.0
  0
MTEXT
  5
A9
100
AcDbEntity
100
AcDbMText
  8
0
 62
256
370
-1
  6
ByBlock
 10
-1.650796959984663
 20
23.9679490484192
 30
0.0
 40
0.05
 41
1.0541730409153811
 71
1
 72
2
  1
1
  7
standard
 50
0.0
 73
0
 44
1.0
  0
MTEXT
  5
AA
100
AcDbEntity
100
AcDbMText
  8
0
 62
256
370
-1
  6
ByBlock
 10
-1.6454398741879848
 20
23.173341274938075
 30
0.0
 40
0.05
 41
0.8614186379808111
 71
1
 72
2
  1
0
  7
standard
 50
0.0
 73
0
 44
1.0
  0
MTEXT
  5
AB
100
AcDbEntity
100
AcDbMText
  8
0
 62
256
370
-1
  6
ByBlock
 10
-3.2317371498367891
 20
23.340288573139681
 30
0.0
 40
0.05
 41
1.1494467734801259
 71
1
 72
2
  1
2
  7
standard
 50
0.0
 73
0
 44
1.0
  0
MTEXT
  5
AC
100
AcDbEntity
100
AcDbMText
  8
0
 62
256
370
-1
  6
ByBlock
 10
-3.2446536732132252
 20
22.899847121418681
 30
0.0
 40
0.05
 41
1.8130449107470039
 71
1
 72
2
  1
3
  7
standard
 50
0.0
 73
0
 44
1.0
  0
MTEXT
  5
AD
100
AcDbEntity
100
AcDbMText
  8
0
 62
256
370
-1
  6
ByLayer
 10
2.8570730369346018
 20
25.171482357890788
 30
0.0
 40
0.05
 41
100.0
 71
1
 72
2
  1
1
  7
standard
 50
0.0
 73
0
 44
1.0
  0
MTEXT
  5
AE
100
AcDbEntity
100
AcDbMText
  8
0
 62
256
370
-1
  6
ByBlock
 10
2.8882568545810106
 20
27.814045570725433
 30
0.0
 40
0.05
 41
0.9463868415428778
 71
1
 72
2
  1
2
  7
standard
 50
0.0
 73
0
 44
1.0
  0
MTEXT
  5
AF
100
AcDbEntity
100
AcDbMText
  8
0
 62
256
370
-1
  6
ByBlock
 10
1.1762613346874145
 20
27.532742957897078
 30
0.0
 40
0.05
 41
0.9463868415428778
 71
1
 72
2
  1
3
  7
standard
 50
0.0
 73
0
 44
1.0
  0
MTEXT
  5
B0
100
AcDbEntity
100
AcDbMText
  8
0
 62
256
370
-1
  6
ByLayer
 10
1.2706601337962877
 20
25.062718907699978
 30
0.0
 40
0.05
 41
100.0
 71
1
 72
2
  1
0
  7
standard
 50
0.0
 73
0
 44
1.0
  0
MTEXT
  5
B1
100
AcDbEntity
100
AcDbMText
  8
0
 62
256
370
-1
  6
ByLayer
 10
-2.5054747322251867
 20
27.168758763074294
 30
0.0
 40
0.05
 41
100.0
 71
1
 72
2
  1
2
  7
standard
 50
0.0
 73
0
 44
1.0
  0
MTEXT
  5
B2
100
AcDbEntity
100
AcDbMText
  8
0
 62
256
370
-1
  6
ByLayer
 10
-1.1410680288341686
 20
27.190066629122111
 30
0.0
 40
0.05
 41
100.0
 71
1
 72
2
  1
1
  7
standard
 50
0.0
 73
0
 44
1.0
  0
MTEXT
  5
B3
100
AcDbEntity
100
AcDbMText
  8
0
 62
256
370
-1
  6
ByLayer
 10
-1.6655579290295259
 20
24.564470036647396
 30
0.0
 40
0.05
 41
100.0
 71
1
 72
2
  1
0
  7
standard
 50
0.0
 73
0
 44
1.0
  0
MTEXT
  5
B4
100
AcDbEntity
100
AcDbMText
  8
0
 62
256
370
-1
  6
ByBlock
 10
-2.8825128360188392
 20
24.004934370967401
 30
0.0
 40
0.05
 41
0.4393253903354246
 71
1
 72
2
  1
3
  7
standard
 50
0.0
 73
0
 44
1.0
  0
LINE
  5
B5
100
AcDbEntity
100
AcDbLine
  8
0
 62
256
370
-1
  6
ByLayer
 10
-2.3924156557280538
 20
27.131336457508151
 30
0.0
 11
-2.8858658953319587
 21
24.072979730002441
 31
0.0
  0
LINE
  5
B6
100
AcDbEntity
100
AcDbLine
  8
0
 62
256
370
-1
  6
ByLayer
 10
-2.8858658953319587
 20
24.072979730002441
 30
0.0
 11
-1.73659157073378
 21
24.570684344516309
 31
0.0
  0
LINE
  5
B7
100
AcDbEntity
100
AcDbLine
  8
0
 62
256
370
-1
  6
ByLayer
 10
-1.2244611481354115
 20
27.131336457508151
 30
0.0
 11
-1.73659157073378
 21
24.570684344516309
 31
0.0
  0
LINE
  5
B8
100
AcDbEntity
100
AcDbLine
  8
0
 62
256
370
-1
  6
ByLayer
 10
-1.2244611481354115
 20
27.131336457508151
 30
0.0
 11
-2.3924156557280538
 21
27.131336457508151
 31
0.0
  0
LINE
  5
B9
100
AcDbEntity
100
AcDbLine
  8
0
 62
256
370
-1
  6
ByLayer
 10
1.3425612838634331
 20
25.050045013952698
 30
0.0
 11
1.2611276411274386
 21
27.49305429603254
 31
0.0
  0
LINE
  5
BA
100
AcDbEntity
100
AcDbLine
  8
0
 62
256
370
-1
  6
ByBlock
 10
1.2611276411274386
 20
27.49305429603254
 30
0.0
 11
2.8197729133817448
 21
27.800945481814487
 31
0.0
  0
LINE
  5
BB
100
AcDbEntity
100
AcDbLine
  8
0
 62
256
370
-1
  6
ByBlock
 10
2.8197729133817448
 20
25.155560130346863
 30
0.0
 11
2.8197729133817448
 21
27.800945481814487
 31
0.0
  0
LINE
  5
BC
100
AcDbEntity
100
AcDbLine
  8
0
 62
256
370
-1
  6
ByLayer
 10
1.3425612838634331
 20
25.050045013952698
 30
0.0
 11
2.8197729133817448
 21
25.155560130346863
 31
0.0
  0
ENDSEC
  0
SECTION
  2
OBJECTS
  0
DICTIONARY
  5
C
100
AcDbDictionary
280
0
281
1
  3
ACAD_GROUP
350
D
  3
ACAD_LAYOUT
350
1A
  3
ACAD_MLINESTYLE
350
17
  3
ACAD_PLOTSETTINGS
350
19
  3
ACAD_PLOTSTYLENAME
350
E
  3
AcDbVariableDictionary
350
BD
  0
DICTIONARY
  5
D
100
AcDbDictionary
280
0
281
1
  0
ACDBDICTIONARYWDFLT
  5
E
100
AcDbDictionary
281
1
  3
Normal
350
F
100
AcDbDictionaryWithDefault
340
F
  0
ACDBPLACEHOLDER
  5
F
  0
DICTIONARY
  5
17
100
AcDbDictionary
280
0
281
1
  3
Standard
350
18
  0
MLINESTYLE
  5
18
100
AcDbMlineStyle
  2
STANDARD
 70
0
  3

 62
256
 51
90.0
 52
90.0
 71
2
 49
0.5
 62
256
  6
BYLAYER
 49
-0.5
 62
256
  6
BYLAYER
  0
DICTIONARY
  5
19
100
AcDbDictionary
280
0
281
1
  0
DICTIONARY
  5
1A
100
AcDbDictionary
281
1
  3
Layout1
350
1E
  3
Layout2
350
26
  3
Model
350
22
  0
LAYOUT
  5
1E
100
AcDbPlotSettings
  1

  2
C:\Program Files\AutoCAD 2002\plotters\DWF ePlot (optimized for plotting).pc3
  4

  6

 40
0.0
 41
0.0
 42
0.0
 43
0.0
 44
0.0
 45
0.0
 46
0.0
 47
0.0
 48
0.0
 49
0.0
140
0.0
141
0.0
142
1.0
143
1.0
 70
688
 72
0
 73
0
 74
5
  7

 75
16
147
1.0
148
0.0
149
0.0
100
AcDbLayout
  1
Layout1
 70
1
 71
1
 10
0.0
 20
0.0
 11
420.0
 21
297.0
 12
0.0
 22
0.0
 32
0.0
 14
100000000000000000000.0
 24
100000000000000000000.0
 34
100000000000000000000.0
 15
-100000000000000000000.0
 25
-100000000000000000000.0
 35
-100000000000000000000.0
146
0.0
 13
0.0
 23
0.0
 33
0.0
 16
1.0
 26
0.0
 36
0.0
 17
0.0
 27
1.0
 37
0.0
 76
0
330
1B
  0
LAYOUT
  5
22
100
AcDbPlotSettings
  1

  2
C:\Program Files\AutoCAD 2002\plotters\DWF ePlot (optimized for plotting).pc3
  4

  6

 40
0.0
 41
0.0
 42
0.0
 43
0.0
 44
0.0
 45
0.0
 46
0.0
 47
0.0
 48
0.0
 49
0.0
140
0.0
141
0.0
142
1.0
143
1.0
 70
1712
 72
0
 73
0
 74
0
  7

 75
0
147
1.0
148
0.0
149
0.0
100
AcDbLayout
  1
Model
 70
1
 71
0
 10
0.0
 20
0.0
 11
12.0
 21
9.0
 12
0.0
 22
0.0
 32
0.0
 14
0.0
 24
0.0
 34
0.0
 15
0.0
 25
0.0
 35
0.0
146
0.0
 13
0.0
 23
0.0
 33
0.0
 16
1.0
 26
0.0
 36
0.0
 17
0.0
 27
1.0
 37
0.0
 76
0
330
1F
  0
LAYOUT
  5
26
100
AcDbPlotSettings
  1

  2
C:\Program Files\AutoCAD 2002\plotters\DWF ePlot (optimized for plotting).pc3
  4

  6

 40
0.0
 41
0.0
 42
0.0
 43
0.0
 44
0.0
 45
0.0
 46
0.0
 47
0.0
 48
0.0
 49
0.0
140
0.0
141
0.0
142
1.0
143
1.0
 70
688
 72
0
 73
0
 74
5
  7

 75
16
147
1.0
148
0.0
149
0.0
100
AcDbLayout
  1
Layout2
 70
1
 71
2
 10
0.0
 20
0.0
 11
12.0
 21
9.0
 12
0.0
 22
0.0
 32
0.0
 14
0.0
 24
0.0
 34
0.0
 15
0.0
 25
0.0
 35
0.0
146
0.0
 13
0.0
 23
0.0
 33
0.0
 16
1.0
 26
0.0
 36
0.0
 17
0.0
 27
1.0
 37
0.0
 76
0
330
23
  0
DICTIONARY
  5
BD
100
AcDbDictionary
281
1
  3
DIMASSOC
350
BF
  3
HIDETEXT
350
BE
  0
DICTIONARYVAR
  5
BE
100
DictionaryVariables
280
0
  1
2
  0
DICTIONARYVAR
  5
BF
100
DictionaryVariables
280
0
  1
1
  0
ENDSEC
  0
EOF
