<?xml version="1.0" encoding="UTF-8" standalone="no"?>
<!-- Created with Inkscape (http://www.inkscape.org/) -->

<svg
   xmlns:dc="http://purl.org/dc/elements/1.1/"
   xmlns:cc="http://creativecommons.org/ns#"
   xmlns:rdf="http://www.w3.org/1999/02/22-rdf-syntax-ns#"
   xmlns:svg="http://www.w3.org/2000/svg"
   xmlns="http://www.w3.org/2000/svg"
   xmlns:xlink="http://www.w3.org/1999/xlink"
   xmlns:sodipodi="http://sodipodi.sourceforge.net/DTD/sodipodi-0.dtd"
   xmlns:inkscape="http://www.inkscape.org/namespaces/inkscape"
   width="512"
   height="512"
   id="svg2"
   version="1.1"
   inkscape:version="0.48.0 r9654"
   sodipodi:docname="soil.svg"
   inkscape:export-filename="/home/mickele/prog-work/struct/qmasonry/images/freewall.png"
   inkscape:export-xdpi="90"
   inkscape:export-ydpi="90">
  <defs
     id="defs4">
    <inkscape:path-effect
       effect="spiro"
       id="path-effect3155"
       is_visible="true" />
    <inkscape:path-effect
       effect="spiro"
       id="path-effect3151"
       is_visible="true" />
    <inkscape:path-effect
       effect="spiro"
       id="path-effect3147"
       is_visible="true" />
    <inkscape:path-effect
       effect="spiro"
       id="path-effect3143"
       is_visible="true" />
    <inkscape:path-effect
       effect="spiro"
       id="path-effect3139"
       is_visible="true" />
    <inkscape:path-effect
       effect="spiro"
       id="path-effect3135"
       is_visible="true" />
    <inkscape:path-effect
       effect="spiro"
       id="path-effect3131"
       is_visible="true" />
    <inkscape:path-effect
       effect="spiro"
       id="path-effect3127"
       is_visible="true" />
    <inkscape:path-effect
       effect="spiro"
       id="path-effect3123"
       is_visible="true" />
    <inkscape:path-effect
       effect="spiro"
       id="path-effect3119"
       is_visible="true" />
    <inkscape:path-effect
       effect="spiro"
       id="path-effect3115"
       is_visible="true" />
    <inkscape:path-effect
       effect="spiro"
       id="path-effect3111"
       is_visible="true" />
    <inkscape:path-effect
       effect="spiro"
       id="path-effect3107"
       is_visible="true" />
    <inkscape:path-effect
       effect="spiro"
       id="path-effect3103"
       is_visible="true" />
    <inkscape:path-effect
       effect="spiro"
       id="path-effect3099"
       is_visible="true" />
    <inkscape:path-effect
       effect="spiro"
       id="path-effect3095"
       is_visible="true" />
    <inkscape:path-effect
       effect="spiro"
       id="path-effect3091"
       is_visible="true" />
    <inkscape:path-effect
       effect="spiro"
       id="path-effect3087"
       is_visible="true" />
    <inkscape:path-effect
       effect="spiro"
       id="path-effect3083"
       is_visible="true" />
    <inkscape:path-effect
       effect="spiro"
       id="path-effect3079"
       is_visible="true" />
    <marker
       inkscape:stockid="Arrow2Mstart"
       orient="auto"
       refY="0.0"
       refX="0.0"
       id="Arrow2Mstart"
       style="overflow:visible">
      <path
         id="path3677"
         style="font-size:12.0;fill-rule:evenodd;stroke-width:0.62500000;stroke-linejoin:round"
         d="M 8.7185878,4.0337352 L -2.2072895,0.016013256 L 8.7185884,-4.0017078 C 6.9730900,-1.6296469 6.9831476,1.6157441 8.7185878,4.0337352 z "
         transform="scale(0.6) translate(0,0)" />
    </marker>
    <marker
       inkscape:stockid="Arrow1Sstart"
       orient="auto"
       refY="0.0"
       refX="0.0"
       id="Arrow1Sstart"
       style="overflow:visible">
      <path
         id="path3665"
         d="M 0.0,0.0 L 5.0,-5.0 L -12.5,0.0 L 5.0,5.0 L 0.0,0.0 z "
         style="fill-rule:evenodd;stroke:#000000;stroke-width:1.0pt;marker-start:none"
         transform="scale(0.2) translate(6,0)" />
    </marker>
    <marker
       inkscape:stockid="Arrow2Lstart"
       orient="auto"
       refY="0.0"
       refX="0.0"
       id="Arrow2Lstart"
       style="overflow:visible">
      <path
         id="path3671"
         style="font-size:12.0;fill-rule:evenodd;stroke-width:0.62500000;stroke-linejoin:round"
         d="M 8.7185878,4.0337352 L -2.2072895,0.016013256 L 8.7185884,-4.0017078 C 6.9730900,-1.6296469 6.9831476,1.6157441 8.7185878,4.0337352 z "
         transform="scale(1.1) translate(1,0)" />
    </marker>
    <marker
       inkscape:stockid="Arrow1Lstart"
       orient="auto"
       refY="0.0"
       refX="0.0"
       id="Arrow1Lstart"
       style="overflow:visible">
      <path
         id="path3653"
         d="M 0.0,0.0 L 5.0,-5.0 L -12.5,0.0 L 5.0,5.0 L 0.0,0.0 z "
         style="fill-rule:evenodd;stroke:#000000;stroke-width:1.0pt;marker-start:none"
         transform="scale(0.8) translate(12.5,0)" />
    </marker>
    <linearGradient
       id="linearGradient3663">
      <stop
         style="stop-color:#033908;stop-opacity:1;"
         offset="0"
         id="stop3665" />
      <stop
         style="stop-color:#f5f5f5;stop-opacity:0;"
         offset="1"
         id="stop3667" />
    </linearGradient>
    <linearGradient
       id="linearGradient3624">
      <stop
         style="stop-color:#42364d;stop-opacity:1;"
         offset="0"
         id="stop3626" />
      <stop
         style="stop-color:#f5f5f5;stop-opacity:0;"
         offset="1"
         id="stop3628" />
    </linearGradient>
    <inkscape:perspective
       sodipodi:type="inkscape:persp3d"
       inkscape:vp_x="0 : 526.18109 : 1"
       inkscape:vp_y="0 : 1000 : 0"
       inkscape:vp_z="744.09448 : 526.18109 : 1"
       inkscape:persp3d-origin="372.04724 : 350.78739 : 1"
       id="perspective10" />
    <inkscape:perspective
       id="perspective2826"
       inkscape:persp3d-origin="0.5 : 0.33333333 : 1"
       inkscape:vp_z="1 : 0.5 : 1"
       inkscape:vp_y="0 : 1000 : 0"
       inkscape:vp_x="0 : 0.5 : 1"
       sodipodi:type="inkscape:persp3d" />
    <linearGradient
       inkscape:collect="always"
       xlink:href="#linearGradient3624"
       id="linearGradient3630"
       x1="129.33333"
       y1="267.55554"
       x2="372"
       y2="-48"
       gradientUnits="userSpaceOnUse"
       gradientTransform="matrix(0.56207104,0,0,0.7939155,43.381723,743.48983)" />
    <linearGradient
       inkscape:collect="always"
       xlink:href="#linearGradient3663"
       id="linearGradient3626"
       x1="40"
       y1="512"
       x2="800"
       y2="32"
       gradientUnits="userSpaceOnUse"
       gradientTransform="matrix(0.9,0,0,0.9,25.6,567.56215)" />
    <inkscape:perspective
       id="perspective3717"
       inkscape:persp3d-origin="0.5 : 0.33333333 : 1"
       inkscape:vp_z="1 : 0.5 : 1"
       inkscape:vp_y="0 : 1000 : 0"
       inkscape:vp_x="0 : 0.5 : 1"
       sodipodi:type="inkscape:persp3d" />
    <inkscape:perspective
       id="perspective2844"
       inkscape:persp3d-origin="0.5 : 0.33333333 : 1"
       inkscape:vp_z="1 : 0.5 : 1"
       inkscape:vp_y="0 : 1000 : 0"
       inkscape:vp_x="0 : 0.5 : 1"
       sodipodi:type="inkscape:persp3d" />
    <linearGradient
       inkscape:collect="always"
       xlink:href="#linearGradient3624-8"
       id="linearGradient3630-1"
       x1="129.33333"
       y1="267.55554"
       x2="372"
       y2="-48"
       gradientUnits="userSpaceOnUse"
       gradientTransform="matrix(0.3375,0,0,0.5558821,264.35,784.10349)" />
    <linearGradient
       id="linearGradient3624-8">
      <stop
         style="stop-color:#42364d;stop-opacity:1;"
         offset="0"
         id="stop3626-7" />
      <stop
         style="stop-color:#f5f5f5;stop-opacity:0;"
         offset="1"
         id="stop3628-9" />
    </linearGradient>
    <linearGradient
       y2="-48"
       x2="372"
       y1="267.55554"
       x1="129.33333"
       gradientTransform="matrix(0.45,0,0,0.66176447,61.8,548.24495)"
       gradientUnits="userSpaceOnUse"
       id="linearGradient2853"
       xlink:href="#linearGradient3624-8"
       inkscape:collect="always" />
    <inkscape:perspective
       id="perspective4676"
       inkscape:persp3d-origin="0.5 : 0.33333333 : 1"
       inkscape:vp_z="1 : 0.5 : 1"
       inkscape:vp_y="0 : 1000 : 0"
       inkscape:vp_x="0 : 0.5 : 1"
       sodipodi:type="inkscape:persp3d" />
    <marker
       inkscape:stockid="Arrow2Mstart"
       orient="auto"
       refY="0"
       refX="0"
       id="Arrow2Mstart-0"
       style="overflow:visible">
      <path
         id="path3677-2"
         style="font-size:12px;fill-rule:evenodd;stroke-width:0.625;stroke-linejoin:round"
         d="M 8.7185878,4.0337352 -2.2072895,0.01601326 8.7185884,-4.0017078 c -1.7454984,2.3720609 -1.7354408,5.6174519 -6e-7,8.035443 z"
         transform="scale(0.6,0.6)" />
    </marker>
    <inkscape:perspective
       id="perspective4704"
       inkscape:persp3d-origin="0.5 : 0.33333333 : 1"
       inkscape:vp_z="1 : 0.5 : 1"
       inkscape:vp_y="0 : 1000 : 0"
       inkscape:vp_x="0 : 0.5 : 1"
       sodipodi:type="inkscape:persp3d" />
    <marker
       inkscape:stockid="Arrow2Mstart"
       orient="auto"
       refY="0"
       refX="0"
       id="Arrow2Mstart-7"
       style="overflow:visible">
      <path
         id="path3677-5"
         style="font-size:12px;fill-rule:evenodd;stroke-width:0.625;stroke-linejoin:round"
         d="M 8.7185878,4.0337352 -2.2072895,0.01601326 8.7185884,-4.0017078 c -1.7454984,2.3720609 -1.7354408,5.6174519 -6e-7,8.035443 z"
         transform="scale(0.6,0.6)" />
    </marker>
    <inkscape:perspective
       id="perspective4732"
       inkscape:persp3d-origin="0.5 : 0.33333333 : 1"
       inkscape:vp_z="1 : 0.5 : 1"
       inkscape:vp_y="0 : 1000 : 0"
       inkscape:vp_x="0 : 0.5 : 1"
       sodipodi:type="inkscape:persp3d" />
    <marker
       inkscape:stockid="Arrow2Mstart"
       orient="auto"
       refY="0"
       refX="0"
       id="Arrow2Mstart-2"
       style="overflow:visible">
      <path
         id="path3677-28"
         style="font-size:12px;fill-rule:evenodd;stroke-width:0.625;stroke-linejoin:round"
         d="M 8.7185878,4.0337352 -2.2072895,0.01601326 8.7185884,-4.0017078 c -1.7454984,2.3720609 -1.7354408,5.6174519 -6e-7,8.035443 z"
         transform="scale(0.6,0.6)" />
    </marker>
  </defs>
  <sodipodi:namedview
     id="base"
     pagecolor="#ffffff"
     bordercolor="#666666"
     borderopacity="1.0"
     inkscape:pageopacity="0.0"
     inkscape:pageshadow="2"
     inkscape:zoom="0.98994949"
     inkscape:cx="115.84456"
     inkscape:cy="254.88557"
     inkscape:document-units="px"
     inkscape:current-layer="layer1"
     showgrid="true"
     showguides="false"
     inkscape:guide-bbox="true"
     inkscape:window-width="1280"
     inkscape:window-height="968"
     inkscape:window-x="-4"
     inkscape:window-y="-4"
     inkscape:window-maximized="1"
     inkscape:snap-global="false">
    <inkscape:grid
       type="xygrid"
       id="grid2840"
       empspacing="5"
       visible="true"
       enabled="true"
       snapvisiblegridlinesonly="true"
       spacingx="8px"
       spacingy="8px" />
    <sodipodi:guide
       orientation="1,0"
       position="256,112"
       id="guide2826" />
    <sodipodi:guide
       orientation="1,0"
       position="24,400"
       id="guide3674" />
    <sodipodi:guide
       orientation="0,1"
       position="24,24"
       id="guide3676" />
    <sodipodi:guide
       orientation="1,0"
       position="488,8"
       id="guide3678" />
  </sodipodi:namedview>
  <metadata
     id="metadata7">
    <rdf:RDF>
      <cc:Work
         rdf:about="">
        <dc:format>image/svg+xml</dc:format>
        <dc:type
           rdf:resource="http://purl.org/dc/dcmitype/StillImage" />
        <dc:title />
      </cc:Work>
    </rdf:RDF>
  </metadata>
  <g
     inkscape:label="Livello 1"
     inkscape:groupmode="layer"
     id="layer1"
     transform="translate(0,-540.36215)">
    <rect
       style="fill:#7b6c1b;fill-opacity:0.9430052;stroke:#000000;stroke-width:5.69644355999999960;stroke-linecap:butt;stroke-linejoin:round;stroke-miterlimit:4;stroke-opacity:1;stroke-dasharray:none"
       id="rect3628-1"
       width="445.12625"
       height="453.69769"
       x="34.579727"
       y="569.79901"
       ry="0" />
    <path
       style="fill:none;stroke:#000000;stroke-width:1px;stroke-linecap:butt;stroke-linejoin:miter;stroke-opacity:1"
       d="m 191.92898,123.09127 -11.11167,26.26397 7.07106,17.17259 14.14214,10.10152 23.23351,-12.12183 c 3.89488,-5.52275 5.72267,-12.46837 5.05076,-19.1929 -0.85604,-8.56731 -5.84525,-16.6268 -13.13198,-21.2132 l -25.25382,-1.01015"
       id="path3081"
       inkscape:path-effect="#path-effect3083"
       inkscape:original-d="m 191.92898,123.09127 -11.11167,26.26397 7.07106,17.17259 14.14214,10.10152 23.23351,-12.12183 c 0,0 5.05076,-15.15228 5.05076,-19.1929 0,-4.04061 -13.13198,-21.2132 -13.13198,-21.2132 z"
       inkscape:connector-curvature="0"
       transform="translate(0,540.36215)" />
    <path
       style="fill:none;stroke:#000000;stroke-width:1px;stroke-linecap:butt;stroke-linejoin:miter;stroke-opacity:1"
       d="m 174.75639,232.18774 1.01015,16.16244 25.25382,6.06092 c 2.58688,-0.9469 4.91633,-2.58707 6.67987,-4.70332 1.76354,-2.11625 2.95676,-4.70328 3.42165,-7.41851 0.84917,-4.95967 -0.72809,-10.05065 -3.07955,-14.49925 -2.35145,-4.4486 -5.46597,-8.44657 -8.03213,-12.77487 -2.52074,-4.2517 -4.51514,-8.82616 -7.40747,-12.83434 -1.44616,-2.0041 -3.11942,-3.86212 -5.09313,-5.34949 -1.9737,-1.48737 -4.25903,-2.59688 -6.69229,-3.02937 -2.85168,-0.50686 -5.8654,-0.0537 -8.44193,1.26935 -2.57653,1.32306 -4.70082,3.5083 -5.95048,6.12122 -1.24965,2.61292 -1.61738,5.63825 -1.03007,8.47446 0.58732,2.8362 2.12625,5.46671 4.3108,7.36848 l 5.05076,15.15228"
       id="path3085"
       inkscape:path-effect="#path-effect3087"
       inkscape:original-d="m 174.75639,232.18774 1.01015,16.16244 25.25382,6.06092 c 0,0 12.12183,-3.03046 10.10152,-12.12183 -2.0203,-9.09137 -6.06091,-21.2132 -11.11168,-27.27412 -5.05076,-6.06091 -16.16244,-26.26397 -19.19289,-21.2132 -3.03046,5.05076 -11.11168,23.23351 -11.11168,23.23351 z"
       inkscape:connector-curvature="0"
       transform="translate(0,540.36215)" />
    <path
       style="fill:none;stroke:#000000;stroke-width:1px;stroke-linecap:butt;stroke-linejoin:miter;stroke-opacity:1"
       d="M 125.25892,226.12683 110.10663,214.005 90.913729,231.17759 c 3.170871,4.62178 6.203144,9.33866 9.091371,14.14214 3.02228,5.02643 5.92628,10.20098 9.96231,14.45652 2.01802,2.12777 4.31516,4.01158 6.8987,5.39905 2.58354,1.38748 5.46193,2.26908 8.39281,2.36778 4.53572,0.15274 9.10432,-1.65016 12.31337,-4.85922 3.20906,-3.20905 5.01196,-7.77765 4.85922,-12.31337 l -17.17259,-24.24366"
       id="path3089"
       inkscape:path-effect="#path-effect3091"
       inkscape:original-d="M 125.25892,226.12683 110.10663,214.005 90.913729,231.17759 c 0,0 3.030458,5.05076 9.091371,14.14214 6.06092,9.09137 18.18275,22.22335 25.25382,22.22335 7.07106,0 17.17259,-17.17259 17.17259,-17.17259 z"
       inkscape:connector-curvature="0"
       transform="translate(0,540.36215)" />
    <path
       style="fill:none;stroke:#000000;stroke-width:1px;stroke-linecap:butt;stroke-linejoin:miter;stroke-opacity:1"
       d="m 311.12698,215.01515 -14.14213,-22.22336 c -3.14472,2.18574 -5.89549,4.9365 -8.08122,8.08123 -4.85042,6.97855 -6.77773,15.77531 -6.06092,24.24366 0.27365,3.23285 0.92899,6.47515 2.37964,9.37719 1.45064,2.90203 3.75358,5.45279 6.71174,6.78525 2.27426,1.0244 4.86067,1.29201 7.3228,0.89255 2.46213,-0.39946 4.79913,-1.44984 6.81933,-2.91286 3.66732,-2.65585 6.29388,-6.71151 7.21739,-11.14433 0.9235,-4.43282 0.13502,-9.19995 -2.16663,-13.09933"
       id="path3093"
       inkscape:path-effect="#path-effect3095"
       inkscape:original-d="m 311.12698,215.01515 -14.14213,-22.22336 c 0,0 -5.05076,-1.01015 -8.08122,8.08123 -3.03046,9.09137 -6.06092,18.18274 -6.06092,24.24366 0,6.06091 2.02031,14.14213 9.09138,16.16244 7.07106,2.0203 14.14213,6.06091 14.14213,-2.02031 0,-8.08122 5.05076,-24.24366 5.05076,-24.24366 z"
       inkscape:connector-curvature="0"
       transform="translate(0,540.36215)" />
    <path
       style="fill:none;stroke:#000000;stroke-width:1px;stroke-linecap:butt;stroke-linejoin:miter;stroke-opacity:1"
       d="m 323.24882,109.95929 -9.09138,15.15228 8.08122,14.14214 c 4.73678,3.89123 11.08336,5.75787 17.1726,5.05076 5.76431,-0.66938 11.23129,-3.62649 14.94631,-8.08451 3.71502,-4.45803 5.6378,-10.36863 5.25674,-16.15915 l -28.28427,-16.16244 -8.08122,6.06092"
       id="path3097"
       inkscape:path-effect="#path-effect3099"
       inkscape:original-d="m 323.24882,109.95929 -9.09138,15.15228 8.08122,14.14214 c 0,0 11.11168,5.05076 17.1726,5.05076 6.06091,0 20.20305,-24.24366 20.20305,-24.24366 l -28.28427,-16.16244 z"
       inkscape:connector-curvature="0"
       transform="translate(0,540.36215)" />
    <path
       style="fill:none;stroke:#000000;stroke-width:1px;stroke-linecap:butt;stroke-linejoin:miter;stroke-opacity:1"
       d="m 366.68538,406.94413 0,18.18275 22.22335,12.12183 c 3.00237,2.10013 6.88661,2.89335 10.47199,2.13853 3.58539,-0.75482 6.82012,-3.04677 8.72091,-6.17914 1.82506,-3.00757 2.40383,-6.66378 2.06587,-10.16551 -0.33797,-3.50173 -1.54414,-6.87057 -3.07602,-10.03754 -4.53228,-9.36992 -12.06411,-17.26041 -21.21321,-22.22336 l -19.19289,16.16244"
       id="path3101"
       inkscape:path-effect="#path-effect3103"
       inkscape:original-d="m 366.68538,406.94413 0,18.18275 22.22335,12.12183 c 0,0 19.1929,0 19.1929,-4.04061 0,-4.04061 4.04061,-14.14213 -1.01015,-20.20305 -5.05077,-6.06092 -21.21321,-22.22336 -21.21321,-22.22336 z"
       inkscape:connector-curvature="0"
       transform="translate(0,540.36215)" />
    <path
       style="fill:none;stroke:#000000;stroke-width:1px;stroke-linecap:butt;stroke-linejoin:miter;stroke-opacity:1"
       d="m 257.5889,417.04566 3.03046,13.13198 32.32488,3.03046 c 3.43235,-1.68051 6.26721,-4.55225 7.90322,-8.00604 1.636,-3.45379 2.06219,-7.46648 1.18815,-11.18686 -0.85405,-3.63531 -2.94229,-6.96896 -5.84052,-9.32377 -2.89824,-2.35482 -6.58876,-3.71641 -10.32192,-3.80821 l -28.28427,16.16244"
       id="path3105"
       inkscape:path-effect="#path-effect3107"
       inkscape:original-d="m 257.5889,417.04566 3.03046,13.13198 32.32488,3.03046 c 0,0 15.15229,-13.13198 9.09137,-19.1929 -6.06091,-6.06091 -16.16244,-13.13198 -16.16244,-13.13198 z"
       inkscape:connector-curvature="0"
       transform="translate(0,540.36215)" />
    <path
       style="fill:none;stroke:#000000;stroke-width:1px;stroke-linecap:butt;stroke-linejoin:miter;stroke-opacity:1"
       d="m 344.46202,384.72078 4.04061,14.14213 9.09137,-7.07106 c 0.84994,-0.66107 1.69649,-1.334 2.43219,-2.12023 0.73571,-0.78622 1.35783,-1.68207 1.80504,-2.66157 0.89441,-1.95899 1.0306,-4.18733 0.81353,-6.32988 -0.641,-6.32681 -4.01735,-12.3292 -9.09137,-16.16244 l -13.13198,0 c -1.59162,0 -3.20809,0.0245 -4.73101,0.48708 -1.52292,0.46255 -2.93587,1.38503 -3.80893,2.71583 -0.87305,1.33079 -1.15806,3.04813 -0.69269,4.57019 0.46538,1.52206 1.67429,2.79915 3.17171,3.33858 l 10.10153,9.09137"
       id="path3109"
       inkscape:path-effect="#path-effect3111"
       inkscape:original-d="m 344.46202,384.72078 4.04061,14.14213 9.09137,-7.07106 c 0,0 5.05076,-4.04061 5.05076,-11.11168 0,-7.07107 -9.09137,-16.16244 -9.09137,-16.16244 0,0 -9.09137,0 -13.13198,0 -4.04061,0 -6.06092,11.11168 -6.06092,11.11168 z"
       inkscape:connector-curvature="0"
       transform="translate(0,540.36215)" />
    <path
       style="fill:none;stroke:#000000;stroke-width:1px;stroke-linecap:butt;stroke-linejoin:miter;stroke-opacity:1"
       d="m 413.15239,347.34513 9.09138,13.13199 7.07106,0 c 1.4381,0 2.89004,-0.0233 4.28817,-0.35997 1.39813,-0.3367 2.72818,-0.98781 3.80154,-1.9449 1.07336,-0.9571 1.87653,-2.2025 2.36373,-3.55556 0.4872,-1.35306 0.66711,-2.80303 0.65824,-4.2411 -0.0222,-3.60635 -1.23098,-7.19565 -3.39483,-10.08078 -2.16385,-2.88514 -5.27113,-5.05053 -8.727,-6.08166 l -9.09137,7.07107 -6.06092,6.06091"
       id="path3113"
       inkscape:path-effect="#path-effect3115"
       inkscape:original-d="m 413.15239,347.34513 9.09138,13.13199 c 0,0 2.0203,0 7.07106,0 5.05077,0 16.16244,-4.04061 11.11168,-10.10153 -5.05076,-6.06091 -12.12183,-16.16244 -12.12183,-16.16244 l -9.09137,7.07107 z"
       inkscape:connector-curvature="0"
       transform="translate(0,540.36215)" />
    <path
       style="fill:none;stroke:#000000;stroke-width:1px;stroke-linecap:butt;stroke-linejoin:miter;stroke-opacity:1"
       d="m 241.42646,343.30452 14.14213,13.13199 c 1.57046,3.21967 4.03311,5.99847 7.04067,7.94454 3.00756,1.94607 6.55146,3.05385 10.13193,3.16714 4.27034,0.13511 8.62786,-1.18921 11.90093,-3.93531 3.27306,-2.74609 5.36527,-6.94553 5.27166,-11.21698 -0.0775,-3.53559 -1.58406,-6.9048 -3.54311,-9.84904 -1.95906,-2.94423 -4.37572,-5.55122 -6.55841,-8.33371 -3.28672,-4.18991 -6.07206,-8.81276 -9.90417,-12.51044 -1.91606,-1.84884 -4.09517,-3.45531 -6.53918,-4.51187 -2.444,-1.05655 -5.1657,-1.54545 -7.80032,-1.16043 -2.70971,0.39599 -5.24441,1.70659 -7.29649,3.51995 -2.05207,1.81337 -3.63853,4.11362 -4.82534,6.58157 -2.54411,5.29044 -3.26713,11.43616 -2.0203,17.17259"
       id="path3117"
       inkscape:path-effect="#path-effect3119"
       inkscape:original-d="m 241.42646,343.30452 14.14213,13.13199 c 0,0 2.02031,16.16244 17.1726,11.11168 15.15229,-5.05077 24.24366,-3.03046 17.17259,-15.15229 -7.07107,-12.12183 2.02031,-10.10153 -10.10152,-18.18275 -12.12183,-8.08122 -19.1929,-14.14213 -24.24367,-18.18274 -5.05076,-4.04061 -11.11167,6.06091 -12.12183,10.10152 -1.01015,4.04061 -2.0203,17.17259 -2.0203,17.17259 z"
       inkscape:connector-curvature="0"
       transform="translate(0,540.36215)" />
    <path
       style="fill:none;stroke:#000000;stroke-width:1px;stroke-linecap:butt;stroke-linejoin:miter;stroke-opacity:1"
       d="m 296.98485,306.93903 c 0.82565,8.42967 4.86333,16.50504 11.11168,22.22336 3.90872,3.57715 8.70361,6.2614 13.89893,7.302 5.19531,1.0406 10.78903,0.3669 15.39549,-2.25124 4.07328,-2.3151 7.26469,-6.09327 9.01661,-10.43862 1.75192,-4.34536 2.08025,-9.22676 1.08492,-13.80504 -1.47554,-6.78709 -5.76453,-12.73978 -11.11168,-17.17259 -3.08876,-2.5606 -6.57089,-4.68418 -10.36431,-5.99073 -3.79342,-1.30654 -7.90777,-1.7764 -11.85905,-1.08034 -4.88667,0.86084 -9.43183,3.53814 -12.55386,7.39476 -3.12203,3.85663 -4.79425,8.85963 -4.61873,13.81844"
       id="path3121"
       inkscape:path-effect="#path-effect3123"
       inkscape:original-d="m 296.98485,306.93903 c 0,0 5.05076,22.22336 11.11168,22.22336 6.06091,0 23.23351,12.12183 29.29442,5.05076 6.06092,-7.07107 17.17259,-12.12183 10.10153,-24.24366 -7.07107,-12.12183 -6.06092,-14.14214 -11.11168,-17.17259 -5.05076,-3.03046 -14.14214,-18.18275 -22.22336,-7.07107 -8.08122,11.11168 -17.17259,21.2132 -17.17259,21.2132 z"
       inkscape:connector-curvature="0"
       transform="translate(0,540.36215)" />
    <path
       style="fill:none;stroke:#000000;stroke-width:1px;stroke-linecap:butt;stroke-linejoin:miter;stroke-opacity:1"
       d="m 384.86812,292.7969 1.01015,17.17259 c 3.99951,4.23585 9.40653,7.1196 15.15229,8.08122 3.4204,0.57245 6.99784,0.46785 10.27338,-0.6713 3.27554,-1.13915 6.2274,-3.36698 7.90937,-6.39977 1.02039,-1.83988 1.55756,-3.93706 1.60737,-6.04037 0.0498,-2.1033 -0.3828,-4.21032 -1.20191,-6.14821 -1.63823,-3.87578 -4.79607,-7.00351 -8.48668,-9.02462 -4.12039,-2.25647 -8.9471,-3.20014 -13.61393,-2.66166 -4.66684,0.53848 -9.1518,2.55658 -12.65004,5.69212"
       id="path3125"
       inkscape:path-effect="#path-effect3127"
       inkscape:original-d="m 384.86812,292.7969 1.01015,17.17259 c 0,0 9.09138,8.08122 15.15229,8.08122 6.06092,0 21.21321,5.05076 18.18275,-7.07107 -3.03046,-12.12183 -1.01016,-20.20305 -8.08122,-21.2132 -7.07107,-1.01015 -26.26397,3.03046 -26.26397,3.03046 z"
       inkscape:connector-curvature="0"
       transform="translate(0,540.36215)" />
    <path
       style="fill:none;stroke:#000000;stroke-width:1px;stroke-linecap:butt;stroke-linejoin:miter;stroke-opacity:1"
       d="m 342.44171,229.15729 c -0.43807,7.78183 2.57657,15.69526 8.08122,21.2132 4.32717,4.33762 10.10262,7.1769 16.16245,8.08122 3.80552,0.5679 7.79508,0.3734 11.34772,-1.10419 1.77632,-0.7388 3.42754,-1.79478 4.79285,-3.15016 1.36532,-1.35538 2.44018,-3.01317 3.05232,-4.83702 0.83913,-2.50016 0.78437,-5.26444 0.005,-7.78395 -0.77908,-2.51952 -2.26081,-4.79622 -4.13249,-6.6541 -3.74337,-3.71578 -8.89347,-5.69213 -14.05553,-6.77516 -8.32945,-1.74756 -17.09057,-1.39711 -25.25382,1.01016"
       id="path3129"
       inkscape:path-effect="#path-effect3131"
       inkscape:original-d="m 342.44171,229.15729 c 0,0 4.04061,19.19289 8.08122,21.2132 4.04061,2.02031 7.07107,8.08122 16.16245,8.08122 9.09137,0 28.28427,5.05076 19.19289,-9.09137 -9.09137,-14.14214 -12.12183,-18.18275 -18.18274,-21.21321 -6.06092,-3.03045 -25.25382,1.01016 -25.25382,1.01016 z"
       inkscape:connector-curvature="0"
       transform="translate(0,540.36215)" />
    <path
       style="fill:none;stroke:#000000;stroke-width:1px;stroke-linecap:butt;stroke-linejoin:miter;stroke-opacity:1"
       d="m 331.33004,184.71057 7.07106,12.12183 c 3.53111,2.3626 7.89434,3.45341 12.12183,3.03046 3.2687,-0.32702 6.4439,-1.54482 9.09296,-3.48746 2.64905,-1.94264 4.76493,-4.60497 6.05933,-7.62422 l -15.15229,-20.20305 -13.13198,9.09138 -6.06091,7.07106"
       id="path3133"
       inkscape:path-effect="#path-effect3135"
       inkscape:original-d="m 331.33004,184.71057 7.07106,12.12183 c 0,0 -3.03045,12.12184 12.12183,3.03046 15.15229,-9.09137 15.15229,-11.11168 15.15229,-11.11168 l -15.15229,-20.20305 -13.13198,9.09138 z"
       inkscape:connector-curvature="0"
       transform="translate(0,540.36215)" />
    <path
       style="fill:none;stroke:#000000;stroke-width:1px;stroke-linecap:butt;stroke-linejoin:miter;stroke-opacity:1"
       d="m 281.83256,140.26386 c 2.54784,3.22809 4.91005,6.60267 7.07107,10.10153 1.88543,3.05265 3.63556,6.22422 6.02868,8.89752 1.19656,1.33665 2.55248,2.54204 4.08714,3.47114 1.53466,0.92909 3.25324,1.57727 5.03647,1.77347 3.09661,0.3407 6.26467,-0.72185 8.73529,-2.6195 2.47062,-1.89766 4.27213,-4.58073 5.40684,-7.48202 2.37072,-6.06157 1.80808,-13.1959 -1.48348,-18.81093 -3.29157,-5.61503 -9.2419,-9.59105 -15.68911,-10.4835 l -19.1929,15.15229"
       id="path3137"
       inkscape:path-effect="#path-effect3139"
       inkscape:original-d="m 281.83256,140.26386 c 0,0 3.03046,4.04061 7.07107,10.10153 4.04061,6.06091 8.08122,15.15229 15.15229,14.14213 7.07106,-1.01015 19.1929,-1.01015 14.14213,-10.10152 -5.05076,-9.09138 -17.17259,-29.29443 -17.17259,-29.29443 z"
       inkscape:connector-curvature="0"
       transform="translate(0,540.36215)" />
    <path
       style="fill:none;stroke:#000000;stroke-width:1px;stroke-linecap:butt;stroke-linejoin:miter;stroke-opacity:1"
       d="m 336.3808,233.1979 -17.17259,-30.30458 c 2.28123,-1.83226 5.15771,-2.91094 8.08122,-3.03046 2.72437,-0.11138 5.47717,0.60738 7.79935,2.03641 2.32217,1.42903 4.20434,3.56256 5.33263,6.04481 l 0,17.1726 -4.04061,8.08122"
       id="path3141"
       inkscape:path-effect="#path-effect3143"
       inkscape:original-d="m 336.3808,233.1979 -17.17259,-30.30458 c 0,0 -1.01016,-4.04061 8.08122,-3.03046 9.09137,1.01016 13.13198,8.08122 13.13198,8.08122 l 0,17.1726 z"
       inkscape:connector-curvature="0"
       transform="translate(0,540.36215)" />
    <path
       style="fill:none;stroke:#000000;stroke-width:1px;stroke-linecap:butt;stroke-linejoin:miter;stroke-opacity:1"
       d="m 336.3808,273.604 14.14213,21.2132 c 1.54615,0.95852 3.41212,1.39078 5.22225,1.20977 1.81013,-0.18101 3.55355,-0.97422 4.87928,-2.21992 1.08994,-1.02415 1.89354,-2.34048 2.35853,-3.76198 0.46499,-1.42149 0.59538,-2.94524 0.43332,-4.43205 -0.32413,-2.97362 -1.80493,-5.74149 -3.802,-7.96841 -2.82962,-3.15529 -6.74064,-5.32234 -10.9162,-6.04852 -4.17555,-0.72618 -8.58856,-0.007 -12.31731,2.00791"
       id="path3145"
       inkscape:path-effect="#path-effect3147"
       inkscape:original-d="m 336.3808,273.604 14.14213,21.2132 c 0,0 9.09138,7.07107 10.10153,-1.01015 1.01015,-8.08122 3.03046,-11.11168 -1.01015,-16.16244 C 355.5737,272.59385 336.3808,273.604 336.3808,273.604 z"
       inkscape:connector-curvature="0"
       transform="translate(0,540.36215)" />
    <path
       style="fill:none;stroke:#000000;stroke-width:1px;stroke-linecap:butt;stroke-linejoin:miter;stroke-opacity:1"
       d="m 394.96965,362.49742 8.08122,16.16244 c 2.38243,4.76486 4.75614,9.59175 8.09405,13.74364 1.66896,2.07595 3.58445,3.96999 5.78694,5.46798 2.2025,1.49799 4.70166,2.59324 7.33221,3.01174 4.91783,0.78239 10.159,-0.95969 13.66776,-4.49321 3.50876,-3.53351 5.21303,-8.75903 4.51499,-13.68954 -0.72946,-5.15247 -3.93114,-9.7435 -8.05443,-12.91818 -4.12328,-3.17468 -9.11049,-5.05314 -14.16893,-6.27471 -8.24246,-1.99049 -16.8787,-2.33594 -25.25381,-1.01016"
       id="path3149"
       inkscape:path-effect="#path-effect3151"
       inkscape:original-d="m 394.96965,362.49742 8.08122,16.16244 c 0,0 13.13198,23.23351 21.2132,22.22336 8.08122,-1.01015 25.25381,-12.12183 18.18275,-18.18275 -7.07107,-6.06091 -18.18275,-15.15228 -22.22336,-19.19289 -4.04061,-4.04061 -25.25381,-1.01016 -25.25381,-1.01016 z"
       inkscape:connector-curvature="0"
       transform="translate(0,540.36215)" />
    <path
       style="fill:none;stroke:#000000;stroke-width:1px;stroke-linecap:butt;stroke-linejoin:miter;stroke-opacity:1"
       d="m 261.62951,265.52278 -3.03046,17.17259 12.12183,16.16244 22.22336,-17.17259 c 1.43542,-3.6926 1.82718,-7.78449 1.11848,-11.68237 -0.70871,-3.89788 -2.51574,-7.58998 -5.15909,-10.54099 -2.36077,-2.63553 -5.41056,-4.69034 -8.81182,-5.66539 -3.40126,-0.97504 -7.15147,-0.83067 -10.38108,0.61463 -2.1879,0.97912 -4.11235,2.53979 -5.5222,4.47832 -1.40984,1.93854 -2.30164,4.25023 -2.55902,6.63336"
       id="path3153"
       inkscape:path-effect="#path-effect3155"
       inkscape:original-d="m 261.62951,265.52278 -3.03046,17.17259 12.12183,16.16244 22.22336,-17.17259 c 0,0 1.01015,-20.20305 -4.04061,-22.22336 -5.05076,-2.0203 -19.1929,-9.09137 -19.1929,-5.05076 0,4.04061 -8.08122,11.11168 -8.08122,11.11168 z"
       inkscape:connector-curvature="0"
       transform="translate(0,540.36215)" />
  </g>
  <g
     inkscape:groupmode="layer"
     id="layer2"
     inkscape:label="Livello" />
</svg>
