<?xml version="1.0" encoding="UTF-8" standalone="no"?>
<!-- Created with Inkscape (http://www.inkscape.org/) -->

<svg
   xmlns:dc="http://purl.org/dc/elements/1.1/"
   xmlns:cc="http://creativecommons.org/ns#"
   xmlns:rdf="http://www.w3.org/1999/02/22-rdf-syntax-ns#"
   xmlns:svg="http://www.w3.org/2000/svg"
   xmlns="http://www.w3.org/2000/svg"
   xmlns:xlink="http://www.w3.org/1999/xlink"
   xmlns:sodipodi="http://sodipodi.sourceforge.net/DTD/sodipodi-0.dtd"
   xmlns:inkscape="http://www.inkscape.org/namespaces/inkscape"
   width="512"
   height="512"
   id="svg2"
   version="1.1"
   inkscape:version="0.48.0 r9654"
   sodipodi:docname="sectionrcncrrect.svg"
   inkscape:export-filename="/home/mickele/prog-work/struct/qmasonry/images/freewall.png"
   inkscape:export-xdpi="90"
   inkscape:export-ydpi="90">
  <defs
     id="defs4">
    <marker
       inkscape:stockid="Arrow2Mstart"
       orient="auto"
       refY="0.0"
       refX="0.0"
       id="Arrow2Mstart"
       style="overflow:visible">
      <path
         id="path3677"
         style="font-size:12.0;fill-rule:evenodd;stroke-width:0.62500000;stroke-linejoin:round"
         d="M 8.7185878,4.0337352 L -2.2072895,0.016013256 L 8.7185884,-4.0017078 C 6.9730900,-1.6296469 6.9831476,1.6157441 8.7185878,4.0337352 z "
         transform="scale(0.6) translate(0,0)" />
    </marker>
    <marker
       inkscape:stockid="Arrow1Sstart"
       orient="auto"
       refY="0.0"
       refX="0.0"
       id="Arrow1Sstart"
       style="overflow:visible">
      <path
         id="path3665"
         d="M 0.0,0.0 L 5.0,-5.0 L -12.5,0.0 L 5.0,5.0 L 0.0,0.0 z "
         style="fill-rule:evenodd;stroke:#000000;stroke-width:1.0pt;marker-start:none"
         transform="scale(0.2) translate(6,0)" />
    </marker>
    <marker
       inkscape:stockid="Arrow2Lstart"
       orient="auto"
       refY="0.0"
       refX="0.0"
       id="Arrow2Lstart"
       style="overflow:visible">
      <path
         id="path3671"
         style="font-size:12.0;fill-rule:evenodd;stroke-width:0.62500000;stroke-linejoin:round"
         d="M 8.7185878,4.0337352 L -2.2072895,0.016013256 L 8.7185884,-4.0017078 C 6.9730900,-1.6296469 6.9831476,1.6157441 8.7185878,4.0337352 z "
         transform="scale(1.1) translate(1,0)" />
    </marker>
    <marker
       inkscape:stockid="Arrow1Lstart"
       orient="auto"
       refY="0.0"
       refX="0.0"
       id="Arrow1Lstart"
       style="overflow:visible">
      <path
         id="path3653"
         d="M 0.0,0.0 L 5.0,-5.0 L -12.5,0.0 L 5.0,5.0 L 0.0,0.0 z "
         style="fill-rule:evenodd;stroke:#000000;stroke-width:1.0pt;marker-start:none"
         transform="scale(0.8) translate(12.5,0)" />
    </marker>
    <linearGradient
       id="linearGradient3663">
      <stop
         style="stop-color:#033908;stop-opacity:1;"
         offset="0"
         id="stop3665" />
      <stop
         style="stop-color:#f5f5f5;stop-opacity:0;"
         offset="1"
         id="stop3667" />
    </linearGradient>
    <linearGradient
       id="linearGradient3624">
      <stop
         style="stop-color:#42364d;stop-opacity:1;"
         offset="0"
         id="stop3626" />
      <stop
         style="stop-color:#f5f5f5;stop-opacity:0;"
         offset="1"
         id="stop3628" />
    </linearGradient>
    <inkscape:perspective
       sodipodi:type="inkscape:persp3d"
       inkscape:vp_x="0 : 526.18109 : 1"
       inkscape:vp_y="0 : 1000 : 0"
       inkscape:vp_z="744.09448 : 526.18109 : 1"
       inkscape:persp3d-origin="372.04724 : 350.78739 : 1"
       id="perspective10" />
    <inkscape:perspective
       id="perspective2826"
       inkscape:persp3d-origin="0.5 : 0.33333333 : 1"
       inkscape:vp_z="1 : 0.5 : 1"
       inkscape:vp_y="0 : 1000 : 0"
       inkscape:vp_x="0 : 0.5 : 1"
       sodipodi:type="inkscape:persp3d" />
    <linearGradient
       inkscape:collect="always"
       xlink:href="#linearGradient3624"
       id="linearGradient3630"
       x1="129.33333"
       y1="267.55554"
       x2="372"
       y2="-48"
       gradientUnits="userSpaceOnUse"
       gradientTransform="matrix(0.56207104,0,0,0.7939155,43.381723,743.48983)" />
    <linearGradient
       inkscape:collect="always"
       xlink:href="#linearGradient3663"
       id="linearGradient3626"
       x1="40"
       y1="512"
       x2="800"
       y2="32"
       gradientUnits="userSpaceOnUse"
       gradientTransform="matrix(0.9,0,0,0.9,25.6,567.56215)" />
    <inkscape:perspective
       id="perspective3717"
       inkscape:persp3d-origin="0.5 : 0.33333333 : 1"
       inkscape:vp_z="1 : 0.5 : 1"
       inkscape:vp_y="0 : 1000 : 0"
       inkscape:vp_x="0 : 0.5 : 1"
       sodipodi:type="inkscape:persp3d" />
    <inkscape:perspective
       id="perspective2844"
       inkscape:persp3d-origin="0.5 : 0.33333333 : 1"
       inkscape:vp_z="1 : 0.5 : 1"
       inkscape:vp_y="0 : 1000 : 0"
       inkscape:vp_x="0 : 0.5 : 1"
       sodipodi:type="inkscape:persp3d" />
    <linearGradient
       inkscape:collect="always"
       xlink:href="#linearGradient3624-8"
       id="linearGradient3630-1"
       x1="129.33333"
       y1="267.55554"
       x2="372"
       y2="-48"
       gradientUnits="userSpaceOnUse"
       gradientTransform="matrix(0.3375,0,0,0.5558821,264.35,784.10349)" />
    <linearGradient
       id="linearGradient3624-8">
      <stop
         style="stop-color:#42364d;stop-opacity:1;"
         offset="0"
         id="stop3626-7" />
      <stop
         style="stop-color:#f5f5f5;stop-opacity:0;"
         offset="1"
         id="stop3628-9" />
    </linearGradient>
    <linearGradient
       y2="-48"
       x2="372"
       y1="267.55554"
       x1="129.33333"
       gradientTransform="matrix(0.45,0,0,0.66176447,61.8,548.24495)"
       gradientUnits="userSpaceOnUse"
       id="linearGradient2853"
       xlink:href="#linearGradient3624-8"
       inkscape:collect="always" />
    <inkscape:perspective
       id="perspective4676"
       inkscape:persp3d-origin="0.5 : 0.33333333 : 1"
       inkscape:vp_z="1 : 0.5 : 1"
       inkscape:vp_y="0 : 1000 : 0"
       inkscape:vp_x="0 : 0.5 : 1"
       sodipodi:type="inkscape:persp3d" />
    <marker
       inkscape:stockid="Arrow2Mstart"
       orient="auto"
       refY="0"
       refX="0"
       id="Arrow2Mstart-0"
       style="overflow:visible">
      <path
         id="path3677-2"
         style="font-size:12px;fill-rule:evenodd;stroke-width:0.625;stroke-linejoin:round"
         d="M 8.7185878,4.0337352 -2.2072895,0.01601326 8.7185884,-4.0017078 c -1.7454984,2.3720609 -1.7354408,5.6174519 -6e-7,8.035443 z"
         transform="scale(0.6,0.6)" />
    </marker>
    <inkscape:perspective
       id="perspective4704"
       inkscape:persp3d-origin="0.5 : 0.33333333 : 1"
       inkscape:vp_z="1 : 0.5 : 1"
       inkscape:vp_y="0 : 1000 : 0"
       inkscape:vp_x="0 : 0.5 : 1"
       sodipodi:type="inkscape:persp3d" />
    <marker
       inkscape:stockid="Arrow2Mstart"
       orient="auto"
       refY="0"
       refX="0"
       id="Arrow2Mstart-7"
       style="overflow:visible">
      <path
         id="path3677-5"
         style="font-size:12px;fill-rule:evenodd;stroke-width:0.625;stroke-linejoin:round"
         d="M 8.7185878,4.0337352 -2.2072895,0.01601326 8.7185884,-4.0017078 c -1.7454984,2.3720609 -1.7354408,5.6174519 -6e-7,8.035443 z"
         transform="scale(0.6,0.6)" />
    </marker>
    <inkscape:perspective
       id="perspective4732"
       inkscape:persp3d-origin="0.5 : 0.33333333 : 1"
       inkscape:vp_z="1 : 0.5 : 1"
       inkscape:vp_y="0 : 1000 : 0"
       inkscape:vp_x="0 : 0.5 : 1"
       sodipodi:type="inkscape:persp3d" />
    <marker
       inkscape:stockid="Arrow2Mstart"
       orient="auto"
       refY="0"
       refX="0"
       id="Arrow2Mstart-2"
       style="overflow:visible">
      <path
         id="path3677-28"
         style="font-size:12px;fill-rule:evenodd;stroke-width:0.625;stroke-linejoin:round"
         d="M 8.7185878,4.0337352 -2.2072895,0.01601326 8.7185884,-4.0017078 c -1.7454984,2.3720609 -1.7354408,5.6174519 -6e-7,8.035443 z"
         transform="scale(0.6,0.6)" />
    </marker>
  </defs>
  <sodipodi:namedview
     id="base"
     pagecolor="#ffffff"
     bordercolor="#666666"
     borderopacity="1.0"
     inkscape:pageopacity="0.0"
     inkscape:pageshadow="2"
     inkscape:zoom="0.98994949"
     inkscape:cx="195.95663"
     inkscape:cy="231.47059"
     inkscape:document-units="px"
     inkscape:current-layer="layer1"
     showgrid="true"
     showguides="true"
     inkscape:guide-bbox="true"
     inkscape:window-width="1231"
     inkscape:window-height="780"
     inkscape:window-x="-2"
     inkscape:window-y="-3"
     inkscape:window-maximized="1">
    <inkscape:grid
       type="xygrid"
       id="grid2840"
       empspacing="5"
       visible="true"
       enabled="true"
       snapvisiblegridlinesonly="true"
       spacingx="8px"
       spacingy="8px" />
    <sodipodi:guide
       orientation="1,0"
       position="256,112"
       id="guide2826" />
    <sodipodi:guide
       orientation="1,0"
       position="24,400"
       id="guide3674" />
    <sodipodi:guide
       orientation="0,1"
       position="24,24"
       id="guide3676" />
    <sodipodi:guide
       orientation="1,0"
       position="488,8"
       id="guide3678" />
  </sodipodi:namedview>
  <metadata
     id="metadata7">
    <rdf:RDF>
      <cc:Work
         rdf:about="">
        <dc:format>image/svg+xml</dc:format>
        <dc:type
           rdf:resource="http://purl.org/dc/dcmitype/StillImage" />
        <dc:title />
      </cc:Work>
    </rdf:RDF>
  </metadata>
  <g
     inkscape:label="Livello 1"
     inkscape:groupmode="layer"
     id="layer1"
     transform="translate(0,-540.36215)">
    <path
       style="fill:#70b4d1;stroke:#000000;stroke-width:6;stroke-linecap:butt;stroke-linejoin:round;stroke-miterlimit:4;stroke-opacity:1;fill-opacity:1"
       d="M 120 338.65623 L 120 72 C 120 71.99998 120.00001 71.99997 120.00003 71.99997 L 120.00003 71.99997 L 120.00003 71.99997 L 399.99997 71.99997 C 399.99999 71.99997 400 71.99998 400 72 L 400.00001 245.34374 "
       id="path4073"
       transform="translate(0,540.36215)" />
    <path
       style="fill:none;stroke:#000000;stroke-width:6;stroke-linecap:butt;stroke-linejoin:round;stroke-miterlimit:4;stroke-opacity:1"
       d="M 400.00001 245.34374 L 400 431.99997 C 400 431.99999 399.99999 432 399.99997 432 L 120.00003 432 C 120.00001 432 120 431.99999 120 431.99997 L 120 338.65623 "
       id="rect3236"
       transform="translate(0,540.36215)" />
    <rect
       style="fill:#f5f5f5;fill-opacity:0;stroke:#000000;stroke-width:6;stroke-linecap:butt;stroke-linejoin:round;stroke-miterlimit:4;stroke-opacity:1;stroke-dasharray:none"
       id="rect3628"
       width="496"
       height="496"
       x="8"
       y="8"
       transform="translate(0,540.36215)"
       ry="0" />
    <path
       style="fill:none;stroke:#000000;stroke-width:6;stroke-linecap:butt;stroke-linejoin:miter;stroke-opacity:1;stroke-miterlimit:4;stroke-dasharray:none"
       d="M 80,352 440,232"
       id="path4053"
       inkscape:connector-curvature="0"
       transform="translate(0,540.36215)" />
    <path
       sodipodi:type="arc"
       style="fill:#000000;fill-opacity:1;stroke:#000000;stroke-width:18.00000191;stroke-linecap:butt;stroke-linejoin:round;stroke-miterlimit:4;stroke-opacity:1;stroke-dasharray:none"
       id="path4083"
       sodipodi:cx="240"
       sodipodi:cy="360"
       sodipodi:rx="24"
       sodipodi:ry="24"
       d="m 264,360 c 0,13.25483 -10.74517,24 -24,24 -13.25483,0 -24,-10.74517 -24,-24 0,-13.25483 10.74517,-24 24,-24 13.25483,0 24,10.74517 24,24 z"
       transform="matrix(0.3333333,0,0,0.3333333,176.00001,820.36216)" />
    <path
       transform="matrix(0.3333333,0,0,0.3333333,80.00001,820.36216)"
       d="m 264,360 c 0,13.25483 -10.74517,24 -24,24 -13.25483,0 -24,-10.74517 -24,-24 0,-13.25483 10.74517,-24 24,-24 13.25483,0 24,10.74517 24,24 z"
       sodipodi:ry="24"
       sodipodi:rx="24"
       sodipodi:cy="360"
       sodipodi:cx="240"
       id="path4085"
       style="fill:#000000;fill-opacity:1;stroke:#000000;stroke-width:18.00000191;stroke-linecap:butt;stroke-linejoin:round;stroke-miterlimit:4;stroke-opacity:1;stroke-dasharray:none"
       sodipodi:type="arc" />
    <path
       sodipodi:type="arc"
       style="fill:#000000;fill-opacity:1;stroke:#000000;stroke-width:18.00000191;stroke-linecap:butt;stroke-linejoin:round;stroke-miterlimit:4;stroke-opacity:1;stroke-dasharray:none"
       id="path4087"
       sodipodi:cx="240"
       sodipodi:cy="360"
       sodipodi:rx="24"
       sodipodi:ry="24"
       d="m 264,360 c 0,13.25483 -10.74517,24 -24,24 -13.25483,0 -24,-10.74517 -24,-24 0,-13.25483 10.74517,-24 24,-24 13.25483,0 24,10.74517 24,24 z"
       transform="matrix(0.3333333,0,0,0.3333333,278.00001,820.36216)" />
    <path
       transform="matrix(0.3333333,0,0,0.3333333,176.00001,528.36216)"
       d="m 264,360 c 0,13.25483 -10.74517,24 -24,24 -13.25483,0 -24,-10.74517 -24,-24 0,-13.25483 10.74517,-24 24,-24 13.25483,0 24,10.74517 24,24 z"
       sodipodi:ry="24"
       sodipodi:rx="24"
       sodipodi:cy="360"
       sodipodi:cx="240"
       id="path4089"
       style="fill:#000000;fill-opacity:1;stroke:#000000;stroke-width:18.00000191;stroke-linecap:butt;stroke-linejoin:round;stroke-miterlimit:4;stroke-opacity:1;stroke-dasharray:none"
       sodipodi:type="arc" />
    <path
       sodipodi:type="arc"
       style="fill:#000000;fill-opacity:1;stroke:#000000;stroke-width:18.00000191;stroke-linecap:butt;stroke-linejoin:round;stroke-miterlimit:4;stroke-opacity:1;stroke-dasharray:none"
       id="path4091"
       sodipodi:cx="240"
       sodipodi:cy="360"
       sodipodi:rx="24"
       sodipodi:ry="24"
       d="m 264,360 c 0,13.25483 -10.74517,24 -24,24 -13.25483,0 -24,-10.74517 -24,-24 0,-13.25483 10.74517,-24 24,-24 13.25483,0 24,10.74517 24,24 z"
       transform="matrix(0.3333333,0,0,0.3333333,80.00001,528.36216)" />
    <path
       transform="matrix(0.3333333,0,0,0.3333333,278.00001,528.36216)"
       d="m 264,360 c 0,13.25483 -10.74517,24 -24,24 -13.25483,0 -24,-10.74517 -24,-24 0,-13.25483 10.74517,-24 24,-24 13.25483,0 24,10.74517 24,24 z"
       sodipodi:ry="24"
       sodipodi:rx="24"
       sodipodi:cy="360"
       sodipodi:cx="240"
       id="path4093"
       style="fill:#000000;fill-opacity:1;stroke:#000000;stroke-width:18.00000191;stroke-linecap:butt;stroke-linejoin:round;stroke-miterlimit:4;stroke-opacity:1;stroke-dasharray:none"
       sodipodi:type="arc" />
  </g>
</svg>
